<?xml version="1.0" encoding="utf-8" standalone="no"?>
<!DOCTYPE svg PUBLIC "-//W3C//DTD SVG 1.1//EN"
  "http://www.w3.org/Graphics/SVG/1.1/DTD/svg11.dtd">
<svg xmlns:xlink="http://www.w3.org/1999/xlink" width="1284.589375pt" height="636.495343pt" viewBox="0 0 1284.589375 636.495343" xmlns="http://www.w3.org/2000/svg" version="1.1">
 <metadata>
  <rdf:RDF xmlns:dc="http://purl.org/dc/elements/1.1/" xmlns:cc="http://creativecommons.org/ns#" xmlns:rdf="http://www.w3.org/1999/02/22-rdf-syntax-ns#">
   <cc:Work>
    <dc:type rdf:resource="http://purl.org/dc/dcmitype/StillImage"/>
    <dc:date>2026-01-06T18:55:48.101171</dc:date>
    <dc:format>image/svg+xml</dc:format>
    <dc:creator>
     <cc:Agent>
      <dc:title>Matplotlib v3.10.8, https://matplotlib.org/</dc:title>
     </cc:Agent>
    </dc:creator>
   </cc:Work>
  </rdf:RDF>
 </metadata>
 <defs>
  <style type="text/css">*{stroke-linejoin: round; stroke-linecap: butt}</style>
 </defs>
 <g id="figure_1">
  <g id="patch_1">
   <path d="M 0 636.495343 
L 1284.589375 636.495343 
L 1284.589375 0 
L 0 0 
z
" style="fill: #ffffff"/>
  </g>
  <g id="axes_1">
   <g id="patch_2">
    <path d="M 53.019375 555.077438 
L 1277.389375 555.077438 
L 1277.389375 51.552494 
L 53.019375 51.552494 
z
" style="fill: #ffffff"/>
   </g>
   <g id="matplotlib.axis_1">
    <g id="xtick_1">
     <g id="line2d_1">
      <defs>
       <path id="m0bb7c04dc3" d="M 0 0 
L 0 3.5 
" style="stroke: #000000; stroke-width: 0.8"/>
      </defs>
      <g>
       <use xlink:href="#m0bb7c04dc3" x="146.05156" y="555.077438" style="stroke: #000000; stroke-width: 0.8"/>
      </g>
     </g>
     <g id="text_1">
      <!-- claude-sonnet-4.5 -->
      <g transform="translate(41.37481 607.746095) rotate(-20) scale(0.11 -0.11)">
       <defs>
        <path id="DejaVuSerif-Bold-63" d="M 3609 1038 
Q 3491 469 3123 189 
Q 2756 -91 2125 -91 
Q 1238 -91 750 368 
Q 263 828 263 1663 
Q 263 2488 744 2950 
Q 1225 3413 2081 3413 
Q 2428 3413 2781 3347 
Q 3134 3281 3500 3150 
L 3500 2228 
L 3150 2228 
Q 3100 2650 2903 2854 
Q 2706 3059 2350 3059 
Q 1888 3059 1692 2746 
Q 1497 2434 1497 1663 
Q 1497 909 1687 586 
Q 1878 263 2309 263 
Q 2644 263 2845 463 
Q 3047 663 3091 1038 
L 3609 1038 
z
" transform="scale(0.015625)"/>
        <path id="DejaVuSerif-Bold-6c" d="M 1797 378 
L 2272 378 
L 2272 0 
L 219 0 
L 219 378 
L 691 378 
L 691 4488 
L 219 4488 
L 219 4863 
L 1797 4863 
L 1797 378 
z
" transform="scale(0.015625)"/>
        <path id="DejaVuSerif-Bold-61" d="M 3525 2041 
L 3525 378 
L 4000 378 
L 4000 0 
L 2419 0 
L 2419 422 
Q 2200 159 1931 34 
Q 1663 -91 1319 -91 
Q 809 -91 536 182 
Q 263 456 263 966 
Q 263 1525 655 1803 
Q 1047 2081 1838 2081 
L 2419 2081 
L 2419 2278 
Q 2419 2681 2228 2873 
Q 2038 3066 1638 3066 
Q 1306 3066 1126 2930 
Q 947 2794 872 2484 
L 519 2484 
L 519 3200 
Q 816 3306 1134 3359 
Q 1453 3413 1806 3413 
Q 2697 3413 3111 3081 
Q 3525 2750 3525 2041 
z
M 2419 1044 
L 2419 1709 
L 2003 1709 
Q 1694 1709 1528 1540 
Q 1363 1372 1363 1056 
Q 1363 741 1483 584 
Q 1603 428 1850 428 
Q 2106 428 2262 597 
Q 2419 766 2419 1044 
z
" transform="scale(0.015625)"/>
        <path id="DejaVuSerif-Bold-75" d="M 3963 3322 
L 3963 378 
L 4434 378 
L 4434 0 
L 2853 0 
L 2853 469 
Q 2656 172 2400 40 
Q 2144 -91 1753 -91 
Q 1194 -91 908 239 
Q 622 569 622 1209 
L 622 2944 
L 147 2944 
L 147 3322 
L 1728 3322 
L 1728 1381 
Q 1728 763 1831 595 
Q 1934 428 2209 428 
Q 2544 428 2698 675 
Q 2853 922 2853 1459 
L 2853 2944 
L 2450 2944 
L 2450 3322 
L 3963 3322 
z
" transform="scale(0.015625)"/>
        <path id="DejaVuSerif-Bold-64" d="M 2747 1497 
L 2747 1825 
Q 2747 2406 2597 2665 
Q 2447 2925 2119 2925 
Q 1775 2925 1636 2651 
Q 1497 2378 1497 1663 
Q 1497 947 1637 672 
Q 1778 397 2119 397 
Q 2447 397 2597 656 
Q 2747 916 2747 1497 
z
M 3853 378 
L 4325 378 
L 4325 0 
L 2747 0 
L 2747 422 
Q 2606 163 2367 36 
Q 2128 -91 1778 -91 
Q 1072 -91 667 378 
Q 263 847 263 1663 
Q 263 2481 667 2947 
Q 1072 3413 1778 3413 
Q 2128 3413 2367 3286 
Q 2606 3159 2747 2900 
L 2747 4488 
L 2272 4488 
L 2272 4863 
L 3853 4863 
L 3853 378 
z
" transform="scale(0.015625)"/>
        <path id="DejaVuSerif-Bold-65" d="M 2566 1875 
Q 2566 2531 2444 2795 
Q 2322 3059 2028 3059 
Q 1744 3059 1620 2800 
Q 1497 2541 1497 1931 
L 1497 1875 
L 2566 1875 
z
M 3781 1503 
L 1497 1503 
L 1497 1478 
Q 1497 834 1690 548 
Q 1884 263 2316 263 
Q 2675 263 2897 453 
Q 3119 644 3181 1006 
L 3700 1006 
Q 3566 441 3166 175 
Q 2766 -91 2047 -91 
Q 1184 -91 723 364 
Q 263 819 263 1663 
Q 263 2488 734 2950 
Q 1206 3413 2047 3413 
Q 2872 3413 3312 2927 
Q 3753 2441 3781 1503 
z
" transform="scale(0.015625)"/>
        <path id="DejaVuSerif-Bold-2d" d="M 347 2138 
L 2309 2138 
L 2309 1294 
L 347 1294 
L 347 2138 
z
" transform="scale(0.015625)"/>
        <path id="DejaVuSerif-Bold-73" d="M 300 97 
L 300 1025 
L 653 1025 
Q 697 653 931 458 
Q 1166 263 1569 263 
Q 1906 263 2086 380 
Q 2266 497 2266 716 
Q 2266 916 2152 1025 
Q 2038 1134 1709 1216 
L 1253 1331 
Q 738 1459 506 1698 
Q 275 1938 275 2344 
Q 275 2884 650 3148 
Q 1025 3413 1806 3413 
Q 2100 3413 2433 3364 
Q 2766 3316 3169 3213 
L 3169 2375 
L 2816 2375 
Q 2788 2716 2573 2887 
Q 2359 3059 1959 3059 
Q 1622 3059 1448 2951 
Q 1275 2844 1275 2638 
Q 1275 2469 1375 2372 
Q 1475 2275 1734 2209 
L 2188 2094 
Q 2841 1928 3091 1684 
Q 3341 1441 3341 1006 
Q 3341 444 2939 176 
Q 2538 -91 1691 -91 
Q 1381 -91 1034 -44 
Q 688 3 300 97 
z
" transform="scale(0.015625)"/>
        <path id="DejaVuSerif-Bold-6f" d="M 2138 263 
Q 2488 263 2630 563 
Q 2772 863 2772 1663 
Q 2772 2463 2631 2761 
Q 2491 3059 2138 3059 
Q 1784 3059 1640 2757 
Q 1497 2456 1497 1663 
Q 1497 869 1640 566 
Q 1784 263 2138 263 
z
M 2138 -91 
Q 1259 -91 761 376 
Q 263 844 263 1663 
Q 263 2484 761 2948 
Q 1259 3413 2138 3413 
Q 3019 3413 3516 2948 
Q 4013 2484 4013 1663 
Q 4013 844 3514 376 
Q 3016 -91 2138 -91 
z
" transform="scale(0.015625)"/>
        <path id="DejaVuSerif-Bold-6e" d="M 219 0 
L 219 378 
L 691 378 
L 691 2944 
L 219 2944 
L 219 3322 
L 1797 3322 
L 1797 2853 
Q 1997 3150 2253 3281 
Q 2509 3413 2900 3413 
Q 3459 3413 3745 3083 
Q 4031 2753 4031 2113 
L 4031 378 
L 4506 378 
L 4506 0 
L 2522 0 
L 2522 378 
L 2925 378 
L 2925 2144 
Q 2925 2566 2817 2730 
Q 2709 2894 2444 2894 
Q 2109 2894 1953 2648 
Q 1797 2403 1797 1869 
L 1797 378 
L 2203 378 
L 2203 0 
L 219 0 
z
" transform="scale(0.015625)"/>
        <path id="DejaVuSerif-Bold-74" d="M 634 2944 
L 153 2944 
L 153 3322 
L 634 3322 
L 634 4353 
L 1741 4353 
L 1741 3322 
L 2663 3322 
L 2663 2944 
L 1741 2944 
L 1741 909 
Q 1741 475 1809 369 
Q 1878 263 2059 263 
Q 2259 263 2356 397 
Q 2453 531 2459 813 
L 2925 813 
Q 2897 313 2651 111 
Q 2406 -91 1806 -91 
Q 1122 -91 878 123 
Q 634 338 634 909 
L 634 2944 
z
" transform="scale(0.015625)"/>
        <path id="DejaVuSerif-Bold-34" d="M 4084 0 
L 1516 0 
L 1516 378 
L 2209 378 
L 2209 1228 
L 263 1228 
L 263 1588 
L 2216 4750 
L 3391 4750 
L 3391 1631 
L 4191 1631 
L 4191 1228 
L 3391 1228 
L 3391 378 
L 4084 378 
L 4084 0 
z
M 2209 1631 
L 2209 3897 
L 819 1631 
L 2209 1631 
z
" transform="scale(0.015625)"/>
        <path id="DejaVuSerif-Bold-2e" d="M 519 506 
Q 519 750 694 925 
Q 869 1100 1113 1100 
Q 1359 1100 1534 925 
Q 1709 750 1709 506 
Q 1709 259 1534 84 
Q 1359 -91 1113 -91 
Q 869 -91 694 84 
Q 519 259 519 506 
z
" transform="scale(0.015625)"/>
        <path id="DejaVuSerif-Bold-35" d="M 3609 4666 
L 3609 3847 
L 1113 3847 
L 1113 2822 
Q 1319 2981 1572 3062 
Q 1825 3144 2106 3144 
Q 2969 3144 3469 2708 
Q 3969 2272 3969 1522 
Q 3969 759 3469 334 
Q 2969 -91 2069 -91 
Q 1688 -91 1311 -28 
Q 934 34 525 166 
L 525 1184 
L 900 1184 
Q 919 725 1139 500 
Q 1359 275 1791 275 
Q 2250 275 2472 583 
Q 2694 891 2694 1522 
Q 2694 2144 2476 2451 
Q 2259 2759 1819 2759 
Q 1581 2759 1395 2661 
Q 1209 2563 1050 2356 
L 738 2356 
L 738 4666 
L 3609 4666 
z
" transform="scale(0.015625)"/>
       </defs>
       <use xlink:href="#DejaVuSerif-Bold-63"/>
       <use xlink:href="#DejaVuSerif-Bold-6c" transform="translate(60.888672 0)"/>
       <use xlink:href="#DejaVuSerif-Bold-61" transform="translate(98.876953 0)"/>
       <use xlink:href="#DejaVuSerif-Bold-75" transform="translate(163.671875 0)"/>
       <use xlink:href="#DejaVuSerif-Bold-64" transform="translate(236.376953 0)"/>
       <use xlink:href="#DejaVuSerif-Bold-65" transform="translate(306.298828 0)"/>
       <use xlink:href="#DejaVuSerif-Bold-2d" transform="translate(369.921875 0)"/>
       <use xlink:href="#DejaVuSerif-Bold-73" transform="translate(411.425781 0)"/>
       <use xlink:href="#DejaVuSerif-Bold-6f" transform="translate(467.724609 0)"/>
       <use xlink:href="#DejaVuSerif-Bold-6e" transform="translate(534.423828 0)"/>
       <use xlink:href="#DejaVuSerif-Bold-6e" transform="translate(607.128906 0)"/>
       <use xlink:href="#DejaVuSerif-Bold-65" transform="translate(679.833984 0)"/>
       <use xlink:href="#DejaVuSerif-Bold-74" transform="translate(743.457031 0)"/>
       <use xlink:href="#DejaVuSerif-Bold-2d" transform="translate(789.648438 0)"/>
       <use xlink:href="#DejaVuSerif-Bold-34" transform="translate(831.152344 0)"/>
       <use xlink:href="#DejaVuSerif-Bold-2e" transform="translate(900.732422 0)"/>
       <use xlink:href="#DejaVuSerif-Bold-35" transform="translate(935.546875 0)"/>
      </g>
     </g>
    </g>
    <g id="xtick_2">
     <g id="line2d_2">
      <g>
       <use xlink:href="#m0bb7c04dc3" x="249.882123" y="555.077438" style="stroke: #000000; stroke-width: 0.8"/>
      </g>
     </g>
     <g id="text_2">
      <!-- deepseek-v3.2-exp -->
      <g transform="translate(143.234955 608.463268) rotate(-20) scale(0.11 -0.11)">
       <defs>
        <path id="DejaVuSerif-Bold-70" d="M 1728 1825 
L 1728 1497 
Q 1728 916 1876 656 
Q 2025 397 2356 397 
Q 2697 397 2836 672 
Q 2975 947 2975 1663 
Q 2975 2378 2836 2651 
Q 2697 2925 2356 2925 
Q 2025 2925 1876 2665 
Q 1728 2406 1728 1825 
z
M 622 2944 
L 147 2944 
L 147 3322 
L 1728 3322 
L 1728 2900 
Q 1869 3159 2106 3286 
Q 2344 3413 2694 3413 
Q 3403 3413 3811 2945 
Q 4219 2478 4219 1663 
Q 4219 847 3811 378 
Q 3403 -91 2694 -91 
Q 2344 -91 2106 36 
Q 1869 163 1728 422 
L 1728 -953 
L 2241 -953 
L 2241 -1331 
L 147 -1331 
L 147 -953 
L 622 -953 
L 622 2944 
z
" transform="scale(0.015625)"/>
        <path id="DejaVuSerif-Bold-6b" d="M 2216 0 
L 219 0 
L 219 378 
L 691 378 
L 691 4488 
L 219 4488 
L 219 4863 
L 1797 4863 
L 1797 1741 
L 3138 2944 
L 2741 2944 
L 2741 3322 
L 4256 3322 
L 4256 2944 
L 3641 2944 
L 2784 2175 
L 4184 378 
L 4544 378 
L 4544 0 
L 2638 0 
L 2638 378 
L 3028 378 
L 2106 1563 
L 1797 1288 
L 1797 378 
L 2216 378 
L 2216 0 
z
" transform="scale(0.015625)"/>
        <path id="DejaVuSerif-Bold-76" d="M 1428 0 
L 250 2944 
L -116 2944 
L -116 3322 
L 1791 3322 
L 1791 2944 
L 1388 2944 
L 2228 844 
L 3066 2944 
L 2631 2944 
L 2631 3322 
L 3878 3322 
L 3878 2944 
L 3494 2944 
L 2316 0 
L 1428 0 
z
" transform="scale(0.015625)"/>
        <path id="DejaVuSerif-Bold-33" d="M 550 4531 
Q 963 4641 1350 4695 
Q 1738 4750 2106 4750 
Q 2950 4750 3401 4448 
Q 3853 4147 3853 3584 
Q 3853 3163 3593 2900 
Q 3334 2638 2834 2547 
Q 3444 2450 3744 2131 
Q 4044 1813 4044 1259 
Q 4044 606 3526 257 
Q 3009 -91 2028 -91 
Q 1659 -91 1267 -28 
Q 875 34 447 159 
L 447 1184 
L 825 1184 
Q 859 741 1103 508 
Q 1347 275 1778 275 
Q 2253 275 2512 539 
Q 2772 803 2772 1288 
Q 2772 1794 2501 2069 
Q 2231 2344 1734 2344 
L 1528 2344 
L 1528 2719 
L 1691 2719 
Q 2150 2719 2381 2931 
Q 2613 3144 2613 3566 
Q 2613 3963 2395 4173 
Q 2178 4384 1772 4384 
Q 1403 4384 1187 4182 
Q 972 3981 928 3597 
L 550 3597 
L 550 4531 
z
" transform="scale(0.015625)"/>
        <path id="DejaVuSerif-Bold-32" d="M 844 3513 
L 469 3513 
L 469 4519 
Q 850 4634 1223 4692 
Q 1597 4750 1978 4750 
Q 2869 4750 3367 4386 
Q 3866 4022 3866 3372 
Q 3866 2909 3591 2542 
Q 3316 2175 2541 1672 
L 1241 819 
L 3450 819 
L 3450 1369 
L 3878 1369 
L 3878 0 
L 428 0 
L 428 763 
L 1119 1241 
Q 2003 1850 2297 2278 
Q 2591 2706 2591 3278 
Q 2591 3819 2367 4101 
Q 2144 4384 1716 4384 
Q 1347 4384 1125 4161 
Q 903 3938 844 3513 
z
" transform="scale(0.015625)"/>
        <path id="DejaVuSerif-Bold-78" d="M 2247 2119 
L 2834 2944 
L 2425 2944 
L 2425 3322 
L 3719 3322 
L 3719 2944 
L 3278 2944 
L 2431 1759 
L 3419 378 
L 3859 378 
L 3859 0 
L 1747 0 
L 1747 378 
L 2175 378 
L 1550 1253 
L 922 378 
L 1369 378 
L 1369 0 
L 0 0 
L 0 378 
L 475 378 
L 1356 1619 
L 403 2944 
L 31 2944 
L 31 3322 
L 2059 3322 
L 2059 2944 
L 1656 2944 
L 2247 2119 
z
" transform="scale(0.015625)"/>
       </defs>
       <use xlink:href="#DejaVuSerif-Bold-64"/>
       <use xlink:href="#DejaVuSerif-Bold-65" transform="translate(69.921875 0)"/>
       <use xlink:href="#DejaVuSerif-Bold-65" transform="translate(133.544922 0)"/>
       <use xlink:href="#DejaVuSerif-Bold-70" transform="translate(197.167969 0)"/>
       <use xlink:href="#DejaVuSerif-Bold-73" transform="translate(267.089844 0)"/>
       <use xlink:href="#DejaVuSerif-Bold-65" transform="translate(323.388672 0)"/>
       <use xlink:href="#DejaVuSerif-Bold-65" transform="translate(387.011719 0)"/>
       <use xlink:href="#DejaVuSerif-Bold-6b" transform="translate(450.634766 0)"/>
       <use xlink:href="#DejaVuSerif-Bold-2d" transform="translate(515.921875 0)"/>
       <use xlink:href="#DejaVuSerif-Bold-76" transform="translate(557.425781 0)"/>
       <use xlink:href="#DejaVuSerif-Bold-33" transform="translate(615.53125 0)"/>
       <use xlink:href="#DejaVuSerif-Bold-2e" transform="translate(685.111328 0)"/>
       <use xlink:href="#DejaVuSerif-Bold-32" transform="translate(719.925781 0)"/>
       <use xlink:href="#DejaVuSerif-Bold-2d" transform="translate(789.505859 0)"/>
       <use xlink:href="#DejaVuSerif-Bold-65" transform="translate(831.009766 0)"/>
       <use xlink:href="#DejaVuSerif-Bold-78" transform="translate(894.632812 0)"/>
       <use xlink:href="#DejaVuSerif-Bold-70" transform="translate(954.251953 0)"/>
      </g>
     </g>
    </g>
    <g id="xtick_3">
     <g id="line2d_3">
      <g>
       <use xlink:href="#m0bb7c04dc3" x="353.712686" y="555.077438" style="stroke: #000000; stroke-width: 0.8"/>
      </g>
     </g>
     <g id="text_3">
      <!-- gemini-3-pro -->
      <g transform="translate(277.427525 597.392931) rotate(-20) scale(0.11 -0.11)">
       <defs>
        <path id="DejaVuSerif-Bold-67" d="M 3853 2944 
L 3853 44 
Q 3853 -656 3354 -1039 
Q 2856 -1422 1947 -1422 
Q 1616 -1422 1275 -1370 
Q 934 -1319 575 -1216 
L 575 -422 
L 928 -422 
Q 975 -750 1192 -909 
Q 1409 -1069 1813 -1069 
Q 2325 -1069 2536 -823 
Q 2747 -578 2747 44 
L 2747 422 
Q 2606 163 2367 36 
Q 2128 -91 1778 -91 
Q 1072 -91 667 378 
Q 263 847 263 1663 
Q 263 2481 667 2947 
Q 1072 3413 1778 3413 
Q 2128 3413 2367 3286 
Q 2606 3159 2747 2900 
L 2747 3322 
L 4325 3322 
L 4325 2944 
L 3853 2944 
z
M 2747 1825 
Q 2747 2406 2597 2665 
Q 2447 2925 2119 2925 
Q 1775 2925 1636 2651 
Q 1497 2378 1497 1663 
Q 1497 947 1637 672 
Q 1778 397 2119 397 
Q 2447 397 2597 656 
Q 2747 916 2747 1497 
L 2747 1825 
z
" transform="scale(0.015625)"/>
        <path id="DejaVuSerif-Bold-6d" d="M 3884 2778 
Q 4116 3109 4384 3261 
Q 4653 3413 5013 3413 
Q 5584 3413 5867 3089 
Q 6150 2766 6150 2113 
L 6150 378 
L 6625 378 
L 6625 0 
L 4647 0 
L 4647 378 
L 5044 378 
L 5044 1947 
Q 5044 2569 4948 2731 
Q 4853 2894 4594 2894 
Q 4300 2894 4137 2667 
Q 3975 2441 3975 2022 
L 3975 378 
L 4372 378 
L 4372 0 
L 2472 0 
L 2472 378 
L 2869 378 
L 2869 1947 
Q 2869 2569 2772 2731 
Q 2675 2894 2419 2894 
Q 2122 2894 1959 2667 
Q 1797 2441 1797 2022 
L 1797 378 
L 2194 378 
L 2194 0 
L 219 0 
L 219 378 
L 691 378 
L 691 2944 
L 219 2944 
L 219 3322 
L 1797 3322 
L 1797 2853 
Q 1991 3144 2241 3278 
Q 2491 3413 2834 3413 
Q 3241 3413 3494 3258 
Q 3747 3103 3884 2778 
z
" transform="scale(0.015625)"/>
        <path id="DejaVuSerif-Bold-69" d="M 588 4263 
Q 588 4516 763 4689 
Q 938 4863 1191 4863 
Q 1438 4863 1611 4689 
Q 1784 4516 1784 4263 
Q 1784 4016 1611 3842 
Q 1438 3669 1191 3669 
Q 938 3669 763 3841 
Q 588 4013 588 4263 
z
M 1797 378 
L 2272 378 
L 2272 0 
L 219 0 
L 219 378 
L 691 378 
L 691 2944 
L 219 2944 
L 219 3322 
L 1797 3322 
L 1797 378 
z
" transform="scale(0.015625)"/>
        <path id="DejaVuSerif-Bold-72" d="M 3438 3359 
L 3438 2369 
L 3084 2369 
Q 3066 2634 2941 2764 
Q 2816 2894 2578 2894 
Q 2216 2894 2006 2575 
Q 1797 2256 1797 1691 
L 1797 378 
L 2400 378 
L 2400 0 
L 219 0 
L 219 378 
L 691 378 
L 691 2944 
L 184 2944 
L 184 3322 
L 1797 3322 
L 1797 2731 
Q 1959 3078 2226 3245 
Q 2494 3413 2881 3413 
Q 2978 3413 3117 3398 
Q 3256 3384 3438 3359 
z
" transform="scale(0.015625)"/>
       </defs>
       <use xlink:href="#DejaVuSerif-Bold-67"/>
       <use xlink:href="#DejaVuSerif-Bold-65" transform="translate(69.921875 0)"/>
       <use xlink:href="#DejaVuSerif-Bold-6d" transform="translate(133.544922 0)"/>
       <use xlink:href="#DejaVuSerif-Bold-69" transform="translate(239.355469 0)"/>
       <use xlink:href="#DejaVuSerif-Bold-6e" transform="translate(277.34375 0)"/>
       <use xlink:href="#DejaVuSerif-Bold-69" transform="translate(350.048828 0)"/>
       <use xlink:href="#DejaVuSerif-Bold-2d" transform="translate(388.037109 0)"/>
       <use xlink:href="#DejaVuSerif-Bold-33" transform="translate(429.541016 0)"/>
       <use xlink:href="#DejaVuSerif-Bold-2d" transform="translate(499.121094 0)"/>
       <use xlink:href="#DejaVuSerif-Bold-70" transform="translate(540.625 0)"/>
       <use xlink:href="#DejaVuSerif-Bold-72" transform="translate(610.546875 0)"/>
       <use xlink:href="#DejaVuSerif-Bold-6f" transform="translate(663.232422 0)"/>
      </g>
     </g>
    </g>
    <g id="xtick_4">
     <g id="line2d_4">
      <g>
       <use xlink:href="#m0bb7c04dc3" x="457.543249" y="555.077438" style="stroke: #000000; stroke-width: 0.8"/>
      </g>
     </g>
     <g id="text_4">
      <!-- minimax-m2 -->
      <g transform="translate(384.419028 596.261913) rotate(-20) scale(0.11 -0.11)">
       <use xlink:href="#DejaVuSerif-Bold-6d"/>
       <use xlink:href="#DejaVuSerif-Bold-69" transform="translate(105.810547 0)"/>
       <use xlink:href="#DejaVuSerif-Bold-6e" transform="translate(143.798828 0)"/>
       <use xlink:href="#DejaVuSerif-Bold-69" transform="translate(216.503906 0)"/>
       <use xlink:href="#DejaVuSerif-Bold-6d" transform="translate(254.492188 0)"/>
       <use xlink:href="#DejaVuSerif-Bold-61" transform="translate(360.302734 0)"/>
       <use xlink:href="#DejaVuSerif-Bold-78" transform="translate(425.097656 0)"/>
       <use xlink:href="#DejaVuSerif-Bold-2d" transform="translate(482.966797 0)"/>
       <use xlink:href="#DejaVuSerif-Bold-6d" transform="translate(524.470703 0)"/>
       <use xlink:href="#DejaVuSerif-Bold-32" transform="translate(630.28125 0)"/>
      </g>
     </g>
    </g>
    <g id="xtick_5">
     <g id="line2d_5">
      <g>
       <use xlink:href="#m0bb7c04dc3" x="561.373812" y="555.077438" style="stroke: #000000; stroke-width: 0.8"/>
      </g>
     </g>
     <g id="text_5">
      <!-- ministral-14b-2512 -->
      <g transform="translate(448.663572 610.670046) rotate(-20) scale(0.11 -0.11)">
       <defs>
        <path id="DejaVuSerif-Bold-31" d="M 878 0 
L 878 378 
L 1753 378 
L 1753 4153 
L 781 3578 
L 781 4044 
L 1953 4750 
L 2938 4750 
L 2938 378 
L 3816 378 
L 3816 0 
L 878 0 
z
" transform="scale(0.015625)"/>
        <path id="DejaVuSerif-Bold-62" d="M 622 378 
L 622 4488 
L 147 4488 
L 147 4863 
L 1728 4863 
L 1728 2900 
Q 1869 3159 2106 3286 
Q 2344 3413 2694 3413 
Q 3403 3413 3811 2945 
Q 4219 2478 4219 1663 
Q 4219 847 3811 378 
Q 3403 -91 2694 -91 
Q 2344 -91 2106 36 
Q 1869 163 1728 422 
L 1728 0 
L 147 0 
L 147 378 
L 622 378 
z
M 1728 1497 
Q 1728 916 1876 656 
Q 2025 397 2356 397 
Q 2697 397 2836 672 
Q 2975 947 2975 1663 
Q 2975 2378 2836 2651 
Q 2697 2925 2356 2925 
Q 2025 2925 1876 2665 
Q 1728 2406 1728 1825 
L 1728 1497 
z
" transform="scale(0.015625)"/>
       </defs>
       <use xlink:href="#DejaVuSerif-Bold-6d"/>
       <use xlink:href="#DejaVuSerif-Bold-69" transform="translate(105.810547 0)"/>
       <use xlink:href="#DejaVuSerif-Bold-6e" transform="translate(143.798828 0)"/>
       <use xlink:href="#DejaVuSerif-Bold-69" transform="translate(216.503906 0)"/>
       <use xlink:href="#DejaVuSerif-Bold-73" transform="translate(254.492188 0)"/>
       <use xlink:href="#DejaVuSerif-Bold-74" transform="translate(310.791016 0)"/>
       <use xlink:href="#DejaVuSerif-Bold-72" transform="translate(356.982422 0)"/>
       <use xlink:href="#DejaVuSerif-Bold-61" transform="translate(409.667969 0)"/>
       <use xlink:href="#DejaVuSerif-Bold-6c" transform="translate(474.462891 0)"/>
       <use xlink:href="#DejaVuSerif-Bold-2d" transform="translate(512.451172 0)"/>
       <use xlink:href="#DejaVuSerif-Bold-31" transform="translate(553.955078 0)"/>
       <use xlink:href="#DejaVuSerif-Bold-34" transform="translate(623.535156 0)"/>
       <use xlink:href="#DejaVuSerif-Bold-62" transform="translate(693.115234 0)"/>
       <use xlink:href="#DejaVuSerif-Bold-2d" transform="translate(763.037109 0)"/>
       <use xlink:href="#DejaVuSerif-Bold-32" transform="translate(804.541016 0)"/>
       <use xlink:href="#DejaVuSerif-Bold-35" transform="translate(874.121094 0)"/>
       <use xlink:href="#DejaVuSerif-Bold-31" transform="translate(943.701172 0)"/>
       <use xlink:href="#DejaVuSerif-Bold-32" transform="translate(1013.28125 0)"/>
      </g>
     </g>
    </g>
    <g id="xtick_6">
     <g id="line2d_6">
      <g>
       <use xlink:href="#m0bb7c04dc3" x="665.204375" y="555.077438" style="stroke: #000000; stroke-width: 0.8"/>
      </g>
     </g>
     <g id="text_6">
      <!-- mimo-v2-flash -->
      <g transform="translate(581.543264 600.097028) rotate(-20) scale(0.11 -0.11)">
       <defs>
        <path id="DejaVuSerif-Bold-66" d="M 3097 4031 
L 2747 4031 
Q 2722 4275 2605 4394 
Q 2488 4513 2272 4513 
Q 2022 4513 1909 4333 
Q 1797 4153 1797 3750 
L 1797 3322 
L 2631 3322 
L 2631 2944 
L 1797 2944 
L 1797 378 
L 2438 378 
L 2438 0 
L 219 0 
L 219 378 
L 691 378 
L 691 2944 
L 197 2944 
L 197 3322 
L 691 3322 
L 691 3738 
Q 691 4291 1044 4577 
Q 1397 4863 2081 4863 
Q 2347 4863 2600 4833 
Q 2853 4803 3097 4744 
L 3097 4031 
z
" transform="scale(0.015625)"/>
        <path id="DejaVuSerif-Bold-68" d="M 219 0 
L 219 378 
L 691 378 
L 691 4488 
L 197 4488 
L 197 4863 
L 1797 4863 
L 1797 2853 
Q 1997 3150 2253 3281 
Q 2509 3413 2900 3413 
Q 3459 3413 3745 3083 
Q 4031 2753 4031 2113 
L 4031 378 
L 4506 378 
L 4506 0 
L 2522 0 
L 2522 378 
L 2925 378 
L 2925 2144 
Q 2925 2566 2817 2730 
Q 2709 2894 2444 2894 
Q 2109 2894 1953 2648 
Q 1797 2403 1797 1869 
L 1797 378 
L 2203 378 
L 2203 0 
L 219 0 
z
" transform="scale(0.015625)"/>
       </defs>
       <use xlink:href="#DejaVuSerif-Bold-6d"/>
       <use xlink:href="#DejaVuSerif-Bold-69" transform="translate(105.810547 0)"/>
       <use xlink:href="#DejaVuSerif-Bold-6d" transform="translate(143.798828 0)"/>
       <use xlink:href="#DejaVuSerif-Bold-6f" transform="translate(249.609375 0)"/>
       <use xlink:href="#DejaVuSerif-Bold-2d" transform="translate(316.308594 0)"/>
       <use xlink:href="#DejaVuSerif-Bold-76" transform="translate(357.8125 0)"/>
       <use xlink:href="#DejaVuSerif-Bold-32" transform="translate(415.917969 0)"/>
       <use xlink:href="#DejaVuSerif-Bold-2d" transform="translate(485.498047 0)"/>
       <use xlink:href="#DejaVuSerif-Bold-66" transform="translate(527.001953 0)"/>
       <use xlink:href="#DejaVuSerif-Bold-6c" transform="translate(570.019531 0)"/>
       <use xlink:href="#DejaVuSerif-Bold-61" transform="translate(608.007812 0)"/>
       <use xlink:href="#DejaVuSerif-Bold-73" transform="translate(672.802734 0)"/>
       <use xlink:href="#DejaVuSerif-Bold-68" transform="translate(729.101562 0)"/>
      </g>
     </g>
    </g>
    <g id="xtick_7">
     <g id="line2d_7">
      <g>
       <use xlink:href="#m0bb7c04dc3" x="769.034938" y="555.077438" style="stroke: #000000; stroke-width: 0.8"/>
      </g>
     </g>
     <g id="text_7">
      <!-- grok-4.1-fast -->
      <g transform="translate(693.583167 597.089602) rotate(-20) scale(0.11 -0.11)">
       <use xlink:href="#DejaVuSerif-Bold-67"/>
       <use xlink:href="#DejaVuSerif-Bold-72" transform="translate(69.921875 0)"/>
       <use xlink:href="#DejaVuSerif-Bold-6f" transform="translate(122.607422 0)"/>
       <use xlink:href="#DejaVuSerif-Bold-6b" transform="translate(189.306641 0)"/>
       <use xlink:href="#DejaVuSerif-Bold-2d" transform="translate(254.59375 0)"/>
       <use xlink:href="#DejaVuSerif-Bold-34" transform="translate(296.097656 0)"/>
       <use xlink:href="#DejaVuSerif-Bold-2e" transform="translate(365.677734 0)"/>
       <use xlink:href="#DejaVuSerif-Bold-31" transform="translate(400.492188 0)"/>
       <use xlink:href="#DejaVuSerif-Bold-2d" transform="translate(470.072266 0)"/>
       <use xlink:href="#DejaVuSerif-Bold-66" transform="translate(511.576172 0)"/>
       <use xlink:href="#DejaVuSerif-Bold-61" transform="translate(554.59375 0)"/>
       <use xlink:href="#DejaVuSerif-Bold-73" transform="translate(619.388672 0)"/>
       <use xlink:href="#DejaVuSerif-Bold-74" transform="translate(675.6875 0)"/>
      </g>
     </g>
    </g>
    <g id="xtick_8">
     <g id="line2d_8">
      <g>
       <use xlink:href="#m0bb7c04dc3" x="872.865501" y="555.077438" style="stroke: #000000; stroke-width: 0.8"/>
      </g>
     </g>
     <g id="text_8">
      <!-- glm-4.6v -->
      <g transform="translate(821.659562 588.264841) rotate(-20) scale(0.11 -0.11)">
       <defs>
        <path id="DejaVuSerif-Bold-36" d="M 1575 2766 
Q 1778 2928 2029 3009 
Q 2281 3091 2578 3091 
Q 3294 3091 3701 2672 
Q 4109 2253 4109 1522 
Q 4109 750 3650 329 
Q 3191 -91 2344 -91 
Q 1388 -91 895 486 
Q 403 1063 403 2181 
Q 403 3453 950 4101 
Q 1497 4750 2572 4750 
Q 2853 4750 3175 4703 
Q 3497 4656 3866 4563 
L 3866 3738 
L 3488 3738 
Q 3409 4056 3192 4220 
Q 2975 4384 2631 4384 
Q 2075 4384 1826 4003 
Q 1578 3622 1575 2766 
z
M 2272 275 
Q 2594 275 2731 548 
Q 2869 822 2869 1497 
Q 2869 2172 2731 2445 
Q 2594 2719 2272 2719 
Q 1950 2719 1814 2445 
Q 1678 2172 1678 1497 
Q 1678 822 1814 548 
Q 1950 275 2272 275 
z
" transform="scale(0.015625)"/>
       </defs>
       <use xlink:href="#DejaVuSerif-Bold-67"/>
       <use xlink:href="#DejaVuSerif-Bold-6c" transform="translate(69.921875 0)"/>
       <use xlink:href="#DejaVuSerif-Bold-6d" transform="translate(107.910156 0)"/>
       <use xlink:href="#DejaVuSerif-Bold-2d" transform="translate(213.720703 0)"/>
       <use xlink:href="#DejaVuSerif-Bold-34" transform="translate(255.224609 0)"/>
       <use xlink:href="#DejaVuSerif-Bold-2e" transform="translate(324.804688 0)"/>
       <use xlink:href="#DejaVuSerif-Bold-36" transform="translate(359.619141 0)"/>
       <use xlink:href="#DejaVuSerif-Bold-76" transform="translate(429.199219 0)"/>
      </g>
     </g>
    </g>
    <g id="xtick_9">
     <g id="line2d_9">
      <g>
       <use xlink:href="#m0bb7c04dc3" x="976.696064" y="555.077438" style="stroke: #000000; stroke-width: 0.8"/>
      </g>
     </g>
     <g id="text_9">
      <!-- qwen3-vl-30b-a3b-thinking -->
      <g transform="translate(819.069789 626.998676) rotate(-20) scale(0.11 -0.11)">
       <defs>
        <path id="DejaVuSerif-Bold-71" d="M 3853 2944 
L 3853 -953 
L 4325 -953 
L 4325 -1331 
L 2234 -1331 
L 2234 -953 
L 2747 -953 
L 2747 422 
Q 2606 163 2367 36 
Q 2128 -91 1778 -91 
Q 1072 -91 667 378 
Q 263 847 263 1663 
Q 263 2481 667 2947 
Q 1072 3413 1778 3413 
Q 2128 3413 2367 3286 
Q 2606 3159 2747 2900 
L 2747 3322 
L 4325 3322 
L 4325 2944 
L 3853 2944 
z
M 2747 1825 
Q 2747 2406 2597 2665 
Q 2447 2925 2119 2925 
Q 1775 2925 1636 2651 
Q 1497 2378 1497 1663 
Q 1497 947 1637 672 
Q 1778 397 2119 397 
Q 2447 397 2597 656 
Q 2747 916 2747 1497 
L 2747 1825 
z
" transform="scale(0.015625)"/>
        <path id="DejaVuSerif-Bold-77" d="M 3450 3322 
L 4206 1106 
L 4831 2944 
L 4397 2944 
L 4397 3322 
L 5638 3322 
L 5638 2944 
L 5247 2944 
L 4244 0 
L 3481 0 
L 2778 2081 
L 2069 0 
L 1313 0 
L 306 2944 
L -56 2944 
L -56 3322 
L 1825 3322 
L 1825 2944 
L 1434 2944 
L 2047 1147 
L 2791 3322 
L 3450 3322 
z
" transform="scale(0.015625)"/>
        <path id="DejaVuSerif-Bold-30" d="M 2228 275 
Q 2603 275 2742 615 
Q 2881 956 2881 2328 
Q 2881 3691 2742 4037 
Q 2603 4384 2228 4384 
Q 1853 4384 1714 4043 
Q 1575 3703 1575 2328 
Q 1575 956 1714 615 
Q 1853 275 2228 275 
z
M 2228 -91 
Q 1294 -91 797 532 
Q 300 1156 300 2328 
Q 300 3500 797 4125 
Q 1294 4750 2228 4750 
Q 3159 4750 3656 4125 
Q 4153 3500 4153 2328 
Q 4153 1156 3656 532 
Q 3159 -91 2228 -91 
z
" transform="scale(0.015625)"/>
       </defs>
       <use xlink:href="#DejaVuSerif-Bold-71"/>
       <use xlink:href="#DejaVuSerif-Bold-77" transform="translate(69.921875 0)"/>
       <use xlink:href="#DejaVuSerif-Bold-65" transform="translate(156.005859 0)"/>
       <use xlink:href="#DejaVuSerif-Bold-6e" transform="translate(219.628906 0)"/>
       <use xlink:href="#DejaVuSerif-Bold-33" transform="translate(292.333984 0)"/>
       <use xlink:href="#DejaVuSerif-Bold-2d" transform="translate(361.914062 0)"/>
       <use xlink:href="#DejaVuSerif-Bold-76" transform="translate(403.417969 0)"/>
       <use xlink:href="#DejaVuSerif-Bold-6c" transform="translate(461.523438 0)"/>
       <use xlink:href="#DejaVuSerif-Bold-2d" transform="translate(499.511719 0)"/>
       <use xlink:href="#DejaVuSerif-Bold-33" transform="translate(541.015625 0)"/>
       <use xlink:href="#DejaVuSerif-Bold-30" transform="translate(610.595703 0)"/>
       <use xlink:href="#DejaVuSerif-Bold-62" transform="translate(680.175781 0)"/>
       <use xlink:href="#DejaVuSerif-Bold-2d" transform="translate(750.097656 0)"/>
       <use xlink:href="#DejaVuSerif-Bold-61" transform="translate(791.601562 0)"/>
       <use xlink:href="#DejaVuSerif-Bold-33" transform="translate(856.396484 0)"/>
       <use xlink:href="#DejaVuSerif-Bold-62" transform="translate(925.976562 0)"/>
       <use xlink:href="#DejaVuSerif-Bold-2d" transform="translate(995.898438 0)"/>
       <use xlink:href="#DejaVuSerif-Bold-74" transform="translate(1037.402344 0)"/>
       <use xlink:href="#DejaVuSerif-Bold-68" transform="translate(1083.59375 0)"/>
       <use xlink:href="#DejaVuSerif-Bold-69" transform="translate(1156.298828 0)"/>
       <use xlink:href="#DejaVuSerif-Bold-6e" transform="translate(1194.287109 0)"/>
       <use xlink:href="#DejaVuSerif-Bold-6b" transform="translate(1266.992188 0)"/>
       <use xlink:href="#DejaVuSerif-Bold-69" transform="translate(1336.279297 0)"/>
       <use xlink:href="#DejaVuSerif-Bold-6e" transform="translate(1374.267578 0)"/>
       <use xlink:href="#DejaVuSerif-Bold-67" transform="translate(1446.972656 0)"/>
      </g>
     </g>
    </g>
    <g id="xtick_10">
     <g id="line2d_10">
      <g>
       <use xlink:href="#m0bb7c04dc3" x="1080.526627" y="555.077438" style="stroke: #000000; stroke-width: 0.8"/>
      </g>
     </g>
     <g id="text_10">
      <!-- gpt-5.2 -->
      <g transform="translate(1038.189184 584.889999) rotate(-20) scale(0.11 -0.11)">
       <use xlink:href="#DejaVuSerif-Bold-67"/>
       <use xlink:href="#DejaVuSerif-Bold-70" transform="translate(69.921875 0)"/>
       <use xlink:href="#DejaVuSerif-Bold-74" transform="translate(139.84375 0)"/>
       <use xlink:href="#DejaVuSerif-Bold-2d" transform="translate(186.035156 0)"/>
       <use xlink:href="#DejaVuSerif-Bold-35" transform="translate(227.539062 0)"/>
       <use xlink:href="#DejaVuSerif-Bold-2e" transform="translate(297.119141 0)"/>
       <use xlink:href="#DejaVuSerif-Bold-32" transform="translate(331.933594 0)"/>
      </g>
     </g>
    </g>
    <g id="xtick_11">
     <g id="line2d_11">
      <g>
       <use xlink:href="#m0bb7c04dc3" x="1184.35719" y="555.077438" style="stroke: #000000; stroke-width: 0.8"/>
      </g>
     </g>
     <g id="text_11">
      <!-- gpt-5-nano -->
      <g transform="translate(1119.897768 592.941741) rotate(-20) scale(0.11 -0.11)">
       <use xlink:href="#DejaVuSerif-Bold-67"/>
       <use xlink:href="#DejaVuSerif-Bold-70" transform="translate(69.921875 0)"/>
       <use xlink:href="#DejaVuSerif-Bold-74" transform="translate(139.84375 0)"/>
       <use xlink:href="#DejaVuSerif-Bold-2d" transform="translate(186.035156 0)"/>
       <use xlink:href="#DejaVuSerif-Bold-35" transform="translate(227.539062 0)"/>
       <use xlink:href="#DejaVuSerif-Bold-2d" transform="translate(297.119141 0)"/>
       <use xlink:href="#DejaVuSerif-Bold-6e" transform="translate(338.623047 0)"/>
       <use xlink:href="#DejaVuSerif-Bold-61" transform="translate(411.328125 0)"/>
       <use xlink:href="#DejaVuSerif-Bold-6e" transform="translate(476.123047 0)"/>
       <use xlink:href="#DejaVuSerif-Bold-6f" transform="translate(548.828125 0)"/>
      </g>
     </g>
    </g>
   </g>
   <g id="matplotlib.axis_2">
    <g id="ytick_1">
     <g id="line2d_12">
      <path d="M 53.019375 555.077438 
L 1277.389375 555.077438 
" clip-path="url(#pacce6d4c95)" style="fill: none; stroke-dasharray: 2.96,1.28; stroke-dashoffset: 0; stroke: #808080; stroke-opacity: 0.4; stroke-width: 0.8"/>
     </g>
     <g id="line2d_13">
      <defs>
       <path id="mbff52eaf0e" d="M 0 0 
L -3.5 0 
" style="stroke: #000000; stroke-width: 0.8"/>
      </defs>
      <g>
       <use xlink:href="#mbff52eaf0e" x="53.019375" y="555.077438" style="stroke: #000000; stroke-width: 0.8"/>
      </g>
     </g>
     <g id="text_12">
      <!-- 0 -->
      <g transform="translate(38.384375 559.6365) scale(0.12 -0.12)">
       <defs>
        <path id="DejaVuSerif-30" d="M 2034 219 
Q 2513 219 2750 744 
Q 2988 1269 2988 2328 
Q 2988 3391 2750 3916 
Q 2513 4441 2034 4441 
Q 1556 4441 1318 3916 
Q 1081 3391 1081 2328 
Q 1081 1269 1318 744 
Q 1556 219 2034 219 
z
M 2034 -91 
Q 1275 -91 848 546 
Q 422 1184 422 2328 
Q 422 3475 848 4112 
Q 1275 4750 2034 4750 
Q 2797 4750 3222 4112 
Q 3647 3475 3647 2328 
Q 3647 1184 3222 546 
Q 2797 -91 2034 -91 
z
" transform="scale(0.015625)"/>
       </defs>
       <use xlink:href="#DejaVuSerif-30"/>
      </g>
     </g>
    </g>
    <g id="ytick_2">
     <g id="line2d_14">
      <path d="M 53.019375 459.167925 
L 1277.389375 459.167925 
" clip-path="url(#pacce6d4c95)" style="fill: none; stroke-dasharray: 2.96,1.28; stroke-dashoffset: 0; stroke: #808080; stroke-opacity: 0.4; stroke-width: 0.8"/>
     </g>
     <g id="line2d_15">
      <g>
       <use xlink:href="#mbff52eaf0e" x="53.019375" y="459.167925" style="stroke: #000000; stroke-width: 0.8"/>
      </g>
     </g>
     <g id="text_13">
      <!-- 2 -->
      <g transform="translate(38.384375 463.726987) scale(0.12 -0.12)">
       <defs>
        <path id="DejaVuSerif-32" d="M 819 3553 
L 469 3553 
L 469 4384 
Q 803 4563 1142 4656 
Q 1481 4750 1806 4750 
Q 2534 4750 2956 4397 
Q 3378 4044 3378 3438 
Q 3378 2753 2422 1800 
Q 2347 1728 2309 1691 
L 1131 513 
L 3078 513 
L 3078 1088 
L 3444 1088 
L 3444 0 
L 434 0 
L 434 341 
L 1850 1753 
Q 2319 2222 2519 2614 
Q 2719 3006 2719 3438 
Q 2719 3909 2473 4175 
Q 2228 4441 1797 4441 
Q 1350 4441 1106 4219 
Q 863 3997 819 3553 
z
" transform="scale(0.015625)"/>
       </defs>
       <use xlink:href="#DejaVuSerif-32"/>
      </g>
     </g>
    </g>
    <g id="ytick_3">
     <g id="line2d_16">
      <path d="M 53.019375 363.258412 
L 1277.389375 363.258412 
" clip-path="url(#pacce6d4c95)" style="fill: none; stroke-dasharray: 2.96,1.28; stroke-dashoffset: 0; stroke: #808080; stroke-opacity: 0.4; stroke-width: 0.8"/>
     </g>
     <g id="line2d_17">
      <g>
       <use xlink:href="#mbff52eaf0e" x="53.019375" y="363.258412" style="stroke: #000000; stroke-width: 0.8"/>
      </g>
     </g>
     <g id="text_14">
      <!-- 4 -->
      <g transform="translate(38.384375 367.817474) scale(0.12 -0.12)">
       <defs>
        <path id="DejaVuSerif-34" d="M 2234 1581 
L 2234 4063 
L 641 1581 
L 2234 1581 
z
M 3609 0 
L 1484 0 
L 1484 331 
L 2234 331 
L 2234 1247 
L 197 1247 
L 197 1588 
L 2241 4750 
L 2859 4750 
L 2859 1581 
L 3750 1581 
L 3750 1247 
L 2859 1247 
L 2859 331 
L 3609 331 
L 3609 0 
z
" transform="scale(0.015625)"/>
       </defs>
       <use xlink:href="#DejaVuSerif-34"/>
      </g>
     </g>
    </g>
    <g id="ytick_4">
     <g id="line2d_18">
      <path d="M 53.019375 267.348899 
L 1277.389375 267.348899 
" clip-path="url(#pacce6d4c95)" style="fill: none; stroke-dasharray: 2.96,1.28; stroke-dashoffset: 0; stroke: #808080; stroke-opacity: 0.4; stroke-width: 0.8"/>
     </g>
     <g id="line2d_19">
      <g>
       <use xlink:href="#mbff52eaf0e" x="53.019375" y="267.348899" style="stroke: #000000; stroke-width: 0.8"/>
      </g>
     </g>
     <g id="text_15">
      <!-- 6 -->
      <g transform="translate(38.384375 271.907961) scale(0.12 -0.12)">
       <defs>
        <path id="DejaVuSerif-36" d="M 2094 219 
Q 2534 219 2771 542 
Q 3009 866 3009 1472 
Q 3009 2078 2771 2401 
Q 2534 2725 2094 2725 
Q 1647 2725 1412 2412 
Q 1178 2100 1178 1509 
Q 1178 888 1415 553 
Q 1653 219 2094 219 
z
M 1075 2569 
Q 1288 2803 1556 2918 
Q 1825 3034 2163 3034 
Q 2859 3034 3264 2615 
Q 3669 2197 3669 1472 
Q 3669 763 3233 336 
Q 2797 -91 2069 -91 
Q 1278 -91 853 498 
Q 428 1088 428 2181 
Q 428 3406 931 4078 
Q 1434 4750 2350 4750 
Q 2597 4750 2869 4703 
Q 3141 4656 3425 4563 
L 3425 3794 
L 3072 3794 
Q 3034 4109 2831 4275 
Q 2628 4441 2284 4441 
Q 1678 4441 1381 3981 
Q 1084 3522 1075 2569 
z
" transform="scale(0.015625)"/>
       </defs>
       <use xlink:href="#DejaVuSerif-36"/>
      </g>
     </g>
    </g>
    <g id="ytick_5">
     <g id="line2d_20">
      <path d="M 53.019375 171.439386 
L 1277.389375 171.439386 
" clip-path="url(#pacce6d4c95)" style="fill: none; stroke-dasharray: 2.96,1.28; stroke-dashoffset: 0; stroke: #808080; stroke-opacity: 0.4; stroke-width: 0.8"/>
     </g>
     <g id="line2d_21">
      <g>
       <use xlink:href="#mbff52eaf0e" x="53.019375" y="171.439386" style="stroke: #000000; stroke-width: 0.8"/>
      </g>
     </g>
     <g id="text_16">
      <!-- 8 -->
      <g transform="translate(38.384375 175.998448) scale(0.12 -0.12)">
       <defs>
        <path id="DejaVuSerif-38" d="M 2981 1275 
Q 2981 1775 2732 2051 
Q 2484 2328 2034 2328 
Q 1584 2328 1336 2051 
Q 1088 1775 1088 1275 
Q 1088 772 1336 495 
Q 1584 219 2034 219 
Q 2484 219 2732 495 
Q 2981 772 2981 1275 
z
M 2853 3541 
Q 2853 3966 2637 4203 
Q 2422 4441 2034 4441 
Q 1650 4441 1433 4203 
Q 1216 3966 1216 3541 
Q 1216 3113 1433 2875 
Q 1650 2638 2034 2638 
Q 2422 2638 2637 2875 
Q 2853 3113 2853 3541 
z
M 2516 2484 
Q 3047 2413 3344 2092 
Q 3641 1772 3641 1275 
Q 3641 619 3225 264 
Q 2809 -91 2034 -91 
Q 1263 -91 845 264 
Q 428 619 428 1275 
Q 428 1772 725 2092 
Q 1022 2413 1556 2484 
Q 1084 2569 832 2842 
Q 581 3116 581 3541 
Q 581 4103 968 4426 
Q 1356 4750 2034 4750 
Q 2713 4750 3100 4426 
Q 3488 4103 3488 3541 
Q 3488 3116 3236 2842 
Q 2984 2569 2516 2484 
z
" transform="scale(0.015625)"/>
       </defs>
       <use xlink:href="#DejaVuSerif-38"/>
      </g>
     </g>
    </g>
    <g id="ytick_6">
     <g id="line2d_22">
      <path d="M 53.019375 75.529873 
L 1277.389375 75.529873 
" clip-path="url(#pacce6d4c95)" style="fill: none; stroke-dasharray: 2.96,1.28; stroke-dashoffset: 0; stroke: #808080; stroke-opacity: 0.4; stroke-width: 0.8"/>
     </g>
     <g id="line2d_23">
      <g>
       <use xlink:href="#mbff52eaf0e" x="53.019375" y="75.529873" style="stroke: #000000; stroke-width: 0.8"/>
      </g>
     </g>
     <g id="text_17">
      <!-- 10 -->
      <g transform="translate(30.749375 80.088935) scale(0.12 -0.12)">
       <defs>
        <path id="DejaVuSerif-31" d="M 909 0 
L 909 331 
L 1722 331 
L 1722 4213 
L 781 3603 
L 781 4013 
L 1919 4750 
L 2350 4750 
L 2350 331 
L 3163 331 
L 3163 0 
L 909 0 
z
" transform="scale(0.015625)"/>
       </defs>
       <use xlink:href="#DejaVuSerif-31"/>
       <use xlink:href="#DejaVuSerif-30" transform="translate(63.623047 0)"/>
      </g>
     </g>
    </g>
    <g id="text_18">
     <!-- Average Score -->
     <g transform="translate(17.63875 359.125747) rotate(-90) scale(0.14 -0.14)">
      <defs>
       <path id="DejaVuSerif-Bold-41" d="M -50 0 
L -50 378 
L 331 378 
L 2088 4666 
L 2834 4666 
L 4594 378 
L 5038 378 
L 5038 0 
L 2853 0 
L 2853 378 
L 3309 378 
L 2925 1331 
L 1172 1331 
L 781 378 
L 1338 378 
L 1338 0 
L -50 0 
z
M 1325 1709 
L 2772 1709 
L 2053 3494 
L 1325 1709 
z
" transform="scale(0.015625)"/>
       <path id="DejaVuSerif-Bold-20" transform="scale(0.015625)"/>
       <path id="DejaVuSerif-Bold-53" d="M 494 225 
L 494 1331 
L 891 1331 
Q 981 806 1318 547 
Q 1656 288 2253 288 
Q 2738 288 2991 472 
Q 3244 656 3244 1013 
Q 3244 1294 3072 1450 
Q 2900 1606 2363 1741 
L 1663 1913 
Q 978 2088 700 2398 
Q 422 2709 422 3284 
Q 422 3978 883 4364 
Q 1344 4750 2175 4750 
Q 2584 4750 3026 4681 
Q 3469 4613 3944 4475 
L 3944 3444 
L 3547 3444 
Q 3456 3925 3150 4148 
Q 2844 4372 2278 4372 
Q 1816 4372 1580 4211 
Q 1344 4050 1344 3731 
Q 1344 3441 1506 3289 
Q 1669 3138 2303 2975 
L 3003 2803 
Q 3653 2641 3945 2297 
Q 4238 1953 4238 1350 
Q 4238 644 3750 276 
Q 3263 -91 2316 -91 
Q 1859 -91 1409 -12 
Q 959 66 494 225 
z
" transform="scale(0.015625)"/>
      </defs>
      <use xlink:href="#DejaVuSerif-Bold-41"/>
      <use xlink:href="#DejaVuSerif-Bold-76" transform="translate(73.587891 0)"/>
      <use xlink:href="#DejaVuSerif-Bold-65" transform="translate(131.693359 0)"/>
      <use xlink:href="#DejaVuSerif-Bold-72" transform="translate(195.316406 0)"/>
      <use xlink:href="#DejaVuSerif-Bold-61" transform="translate(248.001953 0)"/>
      <use xlink:href="#DejaVuSerif-Bold-67" transform="translate(312.796875 0)"/>
      <use xlink:href="#DejaVuSerif-Bold-65" transform="translate(382.71875 0)"/>
      <use xlink:href="#DejaVuSerif-Bold-20" transform="translate(446.341797 0)"/>
      <use xlink:href="#DejaVuSerif-Bold-53" transform="translate(481.15625 0)"/>
      <use xlink:href="#DejaVuSerif-Bold-63" transform="translate(553.373047 0)"/>
      <use xlink:href="#DejaVuSerif-Bold-6f" transform="translate(614.261719 0)"/>
      <use xlink:href="#DejaVuSerif-Bold-72" transform="translate(680.960938 0)"/>
      <use xlink:href="#DejaVuSerif-Bold-65" transform="translate(733.646484 0)"/>
     </g>
    </g>
   </g>
   <g id="patch_3">
    <path d="M 108.672557 555.077438 
L 127.362058 555.077438 
L 127.362058 158.012054 
L 108.672557 158.012054 
z
" clip-path="url(#pacce6d4c95)" style="fill: #e6e6e6; stroke: #ffffff; stroke-width: 0.5; stroke-linejoin: miter"/>
   </g>
   <g id="patch_4">
    <path d="M 212.50312 555.077438 
L 231.192621 555.077438 
L 231.192621 223.230523 
L 212.50312 223.230523 
z
" clip-path="url(#pacce6d4c95)" style="fill: #e6e6e6; stroke: #ffffff; stroke-width: 0.5; stroke-linejoin: miter"/>
   </g>
   <g id="patch_5">
    <path d="M 316.333683 555.077438 
L 335.023184 555.077438 
L 335.023184 192.059931 
L 316.333683 192.059931 
z
" clip-path="url(#pacce6d4c95)" style="fill: #e6e6e6; stroke: #ffffff; stroke-width: 0.5; stroke-linejoin: miter"/>
   </g>
   <g id="patch_6">
    <path d="M 420.164246 555.077438 
L 438.853747 555.077438 
L 438.853747 199.253144 
L 420.164246 199.253144 
z
" clip-path="url(#pacce6d4c95)" style="fill: #e6e6e6; stroke: #ffffff; stroke-width: 0.5; stroke-linejoin: miter"/>
   </g>
   <g id="patch_7">
    <path d="M 523.994809 555.077438 
L 542.684311 555.077438 
L 542.684311 339.760581 
L 523.994809 339.760581 
z
" clip-path="url(#pacce6d4c95)" style="fill: #e6e6e6; stroke: #ffffff; stroke-width: 0.5; stroke-linejoin: miter"/>
   </g>
   <g id="patch_8">
    <path d="M 627.825372 555.077438 
L 646.514874 555.077438 
L 646.514874 196.855406 
L 627.825372 196.855406 
z
" clip-path="url(#pacce6d4c95)" style="fill: #e6e6e6; stroke: #ffffff; stroke-width: 0.5; stroke-linejoin: miter"/>
   </g>
   <g id="patch_9">
    <path d="M 731.655935 555.077438 
L 750.345437 555.077438 
L 750.345437 177.193956 
L 731.655935 177.193956 
z
" clip-path="url(#pacce6d4c95)" style="fill: #e6e6e6; stroke: #ffffff; stroke-width: 0.5; stroke-linejoin: miter"/>
   </g>
   <g id="patch_10">
    <path d="M 835.486498 555.077438 
L 854.176 555.077438 
L 854.176 237.137402 
L 835.486498 237.137402 
z
" clip-path="url(#pacce6d4c95)" style="fill: #e6e6e6; stroke: #ffffff; stroke-width: 0.5; stroke-linejoin: miter"/>
   </g>
   <g id="patch_11">
    <path d="M 939.317062 555.077438 
L 958.006563 555.077438 
L 958.006563 273.103469 
L 939.317062 273.103469 
z
" clip-path="url(#pacce6d4c95)" style="fill: #e6e6e6; stroke: #ffffff; stroke-width: 0.5; stroke-linejoin: miter"/>
   </g>
   <g id="patch_12">
    <path d="M 1043.147625 555.077438 
L 1061.837126 555.077438 
L 1061.837126 209.323643 
L 1043.147625 209.323643 
z
" clip-path="url(#pacce6d4c95)" style="fill: #e6e6e6; stroke: #ffffff; stroke-width: 0.5; stroke-linejoin: miter"/>
   </g>
   <g id="patch_13">
    <path d="M 1146.978188 555.077438 
L 1165.667689 555.077438 
L 1165.667689 216.516857 
L 1146.978188 216.516857 
z
" clip-path="url(#pacce6d4c95)" style="fill: #e6e6e6; stroke: #ffffff; stroke-width: 0.5; stroke-linejoin: miter"/>
   </g>
   <g id="patch_14">
    <path d="M 127.362058 555.077438 
L 146.05156 555.077438 
L 146.05156 139.309699 
L 127.362058 139.309699 
z
" clip-path="url(#pacce6d4c95)" style="fill: #a6c9ff; stroke: #ffffff; stroke-width: 0.5; stroke-linejoin: miter"/>
   </g>
   <g id="patch_15">
    <path d="M 231.192621 555.077438 
L 249.882123 555.077438 
L 249.882123 193.978121 
L 231.192621 193.978121 
z
" clip-path="url(#pacce6d4c95)" style="fill: #a6c9ff; stroke: #ffffff; stroke-width: 0.5; stroke-linejoin: miter"/>
   </g>
   <g id="patch_16">
    <path d="M 335.023184 555.077438 
L 353.712686 555.077438 
L 353.712686 164.246172 
L 335.023184 164.246172 
z
" clip-path="url(#pacce6d4c95)" style="fill: #a6c9ff; stroke: #ffffff; stroke-width: 0.5; stroke-linejoin: miter"/>
   </g>
   <g id="patch_17">
    <path d="M 438.853747 555.077438 
L 457.543249 555.077438 
L 457.543249 177.673504 
L 438.853747 177.673504 
z
" clip-path="url(#pacce6d4c95)" style="fill: #a6c9ff; stroke: #ffffff; stroke-width: 0.5; stroke-linejoin: miter"/>
   </g>
   <g id="patch_18">
    <path d="M 542.684311 555.077438 
L 561.373812 555.077438 
L 561.373812 348.392437 
L 542.684311 348.392437 
z
" clip-path="url(#pacce6d4c95)" style="fill: #a6c9ff; stroke: #ffffff; stroke-width: 0.5; stroke-linejoin: miter"/>
   </g>
   <g id="patch_19">
    <path d="M 646.514874 555.077438 
L 665.204375 555.077438 
L 665.204375 170.48029 
L 646.514874 170.48029 
z
" clip-path="url(#pacce6d4c95)" style="fill: #a6c9ff; stroke: #ffffff; stroke-width: 0.5; stroke-linejoin: miter"/>
   </g>
   <g id="patch_20">
    <path d="M 750.345437 555.077438 
L 769.034938 555.077438 
L 769.034938 160.409792 
L 750.345437 160.409792 
z
" clip-path="url(#pacce6d4c95)" style="fill: #a6c9ff; stroke: #ffffff; stroke-width: 0.5; stroke-linejoin: miter"/>
   </g>
   <g id="patch_21">
    <path d="M 854.176 555.077438 
L 872.865501 555.077438 
L 872.865501 215.078214 
L 854.176 215.078214 
z
" clip-path="url(#pacce6d4c95)" style="fill: #a6c9ff; stroke: #ffffff; stroke-width: 0.5; stroke-linejoin: miter"/>
   </g>
   <g id="patch_22">
    <path d="M 958.006563 555.077438 
L 976.696064 555.077438 
L 976.696064 330.16963 
L 958.006563 330.16963 
z
" clip-path="url(#pacce6d4c95)" style="fill: #a6c9ff; stroke: #ffffff; stroke-width: 0.5; stroke-linejoin: miter"/>
   </g>
   <g id="patch_23">
    <path d="M 1061.837126 555.077438 
L 1080.526627 555.077438 
L 1080.526627 206.446358 
L 1061.837126 206.446358 
z
" clip-path="url(#pacce6d4c95)" style="fill: #a6c9ff; stroke: #ffffff; stroke-width: 0.5; stroke-linejoin: miter"/>
   </g>
   <g id="patch_24">
    <path d="M 1165.667689 555.077438 
L 1184.35719 555.077438 
L 1184.35719 208.844096 
L 1165.667689 208.844096 
z
" clip-path="url(#pacce6d4c95)" style="fill: #a6c9ff; stroke: #ffffff; stroke-width: 0.5; stroke-linejoin: miter"/>
   </g>
   <g id="patch_25">
    <path d="M 146.05156 555.077438 
L 164.741061 555.077438 
L 164.741061 220.353237 
L 146.05156 220.353237 
z
" clip-path="url(#pacce6d4c95)" style="fill: #b3b3b3; stroke: #ffffff; stroke-width: 0.5; stroke-linejoin: miter"/>
   </g>
   <g id="patch_26">
    <path d="M 249.882123 555.077438 
L 268.571624 555.077438 
L 268.571624 285.092158 
L 249.882123 285.092158 
z
" clip-path="url(#pacce6d4c95)" style="fill: #b3b3b3; stroke: #ffffff; stroke-width: 0.5; stroke-linejoin: miter"/>
   </g>
   <g id="patch_27">
    <path d="M 353.712686 555.077438 
L 372.402187 555.077438 
L 372.402187 266.389803 
L 353.712686 266.389803 
z
" clip-path="url(#pacce6d4c95)" style="fill: #b3b3b3; stroke: #ffffff; stroke-width: 0.5; stroke-linejoin: miter"/>
   </g>
   <g id="patch_28">
    <path d="M 457.543249 555.077438 
L 476.23275 555.077438 
L 476.23275 259.676138 
L 457.543249 259.676138 
z
" clip-path="url(#pacce6d4c95)" style="fill: #b3b3b3; stroke: #ffffff; stroke-width: 0.5; stroke-linejoin: miter"/>
   </g>
   <g id="patch_29">
    <path d="M 561.373812 555.077438 
L 580.063313 555.077438 
L 580.063313 417.926834 
L 561.373812 417.926834 
z
" clip-path="url(#pacce6d4c95)" style="fill: #b3b3b3; stroke: #ffffff; stroke-width: 0.5; stroke-linejoin: miter"/>
   </g>
   <g id="patch_30">
    <path d="M 665.204375 555.077438 
L 683.893876 555.077438 
L 683.893876 256.319305 
L 665.204375 256.319305 
z
" clip-path="url(#pacce6d4c95)" style="fill: #b3b3b3; stroke: #ffffff; stroke-width: 0.5; stroke-linejoin: miter"/>
   </g>
   <g id="patch_31">
    <path d="M 769.034938 555.077438 
L 787.724439 555.077438 
L 787.724439 239.055592 
L 769.034938 239.055592 
z
" clip-path="url(#pacce6d4c95)" style="fill: #b3b3b3; stroke: #ffffff; stroke-width: 0.5; stroke-linejoin: miter"/>
   </g>
   <g id="patch_32">
    <path d="M 872.865501 555.077438 
L 891.555003 555.077438 
L 891.555003 303.794513 
L 872.865501 303.794513 
z
" clip-path="url(#pacce6d4c95)" style="fill: #b3b3b3; stroke: #ffffff; stroke-width: 0.5; stroke-linejoin: miter"/>
   </g>
   <g id="patch_33">
    <path d="M 976.696064 555.077438 
L 995.385566 555.077438 
L 995.385566 370.931173 
L 976.696064 370.931173 
z
" clip-path="url(#pacce6d4c95)" style="fill: #b3b3b3; stroke: #ffffff; stroke-width: 0.5; stroke-linejoin: miter"/>
   </g>
   <g id="patch_34">
    <path d="M 1080.526627 555.077438 
L 1099.216129 555.077438 
L 1099.216129 282.214873 
L 1080.526627 282.214873 
z
" clip-path="url(#pacce6d4c95)" style="fill: #b3b3b3; stroke: #ffffff; stroke-width: 0.5; stroke-linejoin: miter"/>
   </g>
   <g id="patch_35">
    <path d="M 1184.35719 555.077438 
L 1203.046692 555.077438 
L 1203.046692 290.367182 
L 1184.35719 290.367182 
z
" clip-path="url(#pacce6d4c95)" style="fill: #b3b3b3; stroke: #ffffff; stroke-width: 0.5; stroke-linejoin: miter"/>
   </g>
   <g id="patch_36">
    <path d="M 164.741061 555.077438 
L 183.430562 555.077438 
L 183.430562 177.337821 
L 164.741061 177.337821 
z
" clip-path="url(#pacce6d4c95)" style="fill: url(#h70a7661fb7); stroke: #ffffff; stroke-width: 0.5; stroke-linejoin: miter"/>
   </g>
   <g id="patch_37">
    <path d="M 268.571624 555.077438 
L 287.261125 555.077438 
L 287.261125 239.199456 
L 268.571624 239.199456 
z
" clip-path="url(#pacce6d4c95)" style="fill: url(#h70a7661fb7); stroke: #ffffff; stroke-width: 0.5; stroke-linejoin: miter"/>
   </g>
   <g id="patch_38">
    <path d="M 372.402187 555.077438 
L 391.091688 555.077438 
L 391.091688 213.447752 
L 372.402187 213.447752 
z
" clip-path="url(#pacce6d4c95)" style="fill: url(#h70a7661fb7); stroke: #ffffff; stroke-width: 0.5; stroke-linejoin: miter"/>
   </g>
   <g id="patch_39">
    <path d="M 476.23275 555.077438 
L 494.922252 555.077438 
L 494.922252 216.948449 
L 476.23275 216.948449 
z
" clip-path="url(#pacce6d4c95)" style="fill: url(#h70a7661fb7); stroke: #ffffff; stroke-width: 0.5; stroke-linejoin: miter"/>
   </g>
   <g id="patch_40">
    <path d="M 580.063313 555.077438 
L 598.752815 555.077438 
L 598.752815 373.616639 
L 580.063313 373.616639 
z
" clip-path="url(#pacce6d4c95)" style="fill: url(#h70a7661fb7); stroke: #ffffff; stroke-width: 0.5; stroke-linejoin: miter"/>
   </g>
   <g id="patch_41">
    <path d="M 683.893876 555.077438 
L 702.583378 555.077438 
L 702.583378 212.728431 
L 683.893876 212.728431 
z
" clip-path="url(#pacce6d4c95)" style="fill: url(#h70a7661fb7); stroke: #ffffff; stroke-width: 0.5; stroke-linejoin: miter"/>
   </g>
   <g id="patch_42">
    <path d="M 787.724439 555.077438 
L 806.413941 555.077438 
L 806.413941 196.903361 
L 787.724439 196.903361 
z
" clip-path="url(#pacce6d4c95)" style="fill: url(#h70a7661fb7); stroke: #ffffff; stroke-width: 0.5; stroke-linejoin: miter"/>
   </g>
   <g id="patch_43">
    <path d="M 891.555003 555.077438 
L 910.244504 555.077438 
L 910.244504 257.18249 
L 891.555003 257.18249 
z
" clip-path="url(#pacce6d4c95)" style="fill: url(#h70a7661fb7); stroke: #ffffff; stroke-width: 0.5; stroke-linejoin: miter"/>
   </g>
   <g id="patch_44">
    <path d="M 995.385566 555.077438 
L 1014.075067 555.077438 
L 1014.075067 329.354399 
L 995.385566 329.354399 
z
" clip-path="url(#pacce6d4c95)" style="fill: url(#h70a7661fb7); stroke: #ffffff; stroke-width: 0.5; stroke-linejoin: miter"/>
   </g>
   <g id="patch_45">
    <path d="M 1099.216129 555.077438 
L 1117.90563 555.077438 
L 1117.90563 237.61695 
L 1099.216129 237.61695 
z
" clip-path="url(#pacce6d4c95)" style="fill: url(#h70a7661fb7); stroke: #ffffff; stroke-width: 0.5; stroke-linejoin: miter"/>
   </g>
   <g id="patch_46">
    <path d="M 1203.046692 555.077438 
L 1221.736193 555.077438 
L 1221.736193 243.755158 
L 1203.046692 243.755158 
z
" clip-path="url(#pacce6d4c95)" style="fill: url(#h70a7661fb7); stroke: #ffffff; stroke-width: 0.5; stroke-linejoin: miter"/>
   </g>
   <g id="patch_47">
    <path d="M 53.019375 555.077438 
L 53.019375 51.552494 
" style="fill: none; stroke: #cccccc; stroke-linejoin: miter; stroke-linecap: square"/>
   </g>
   <g id="patch_48">
    <path d="M 53.019375 555.077438 
L 1277.389375 555.077438 
" style="fill: none; stroke: #cccccc; stroke-linejoin: miter; stroke-linecap: square"/>
   </g>
   <g id="text_19">
    <!-- 8.28 -->
    <g transform="translate(109.493167 151.556272) scale(0.07 -0.07)">
     <defs>
      <path id="DejaVuSerif-Bold-38" d="M 2975 2484 
Q 3531 2394 3820 2075 
Q 4109 1756 4109 1241 
Q 4109 597 3623 253 
Q 3138 -91 2222 -91 
Q 1306 -91 818 253 
Q 331 597 331 1241 
Q 331 1756 622 2075 
Q 913 2394 1466 2484 
Q 975 2597 731 2861 
Q 488 3125 488 3531 
Q 488 4125 931 4437 
Q 1375 4750 2222 4750 
Q 3066 4750 3511 4437 
Q 3956 4125 3956 3531 
Q 3956 3125 3711 2861 
Q 3466 2597 2975 2484 
z
M 2747 3519 
Q 2747 4013 2628 4198 
Q 2509 4384 2222 4384 
Q 1931 4384 1814 4198 
Q 1697 4013 1697 3519 
Q 1697 3028 1814 2845 
Q 1931 2663 2222 2663 
Q 2513 2663 2630 2845 
Q 2747 3028 2747 3519 
z
M 2869 1294 
Q 2869 1866 2723 2081 
Q 2578 2297 2222 2297 
Q 1863 2297 1719 2081 
Q 1575 1866 1575 1294 
Q 1575 716 1720 495 
Q 1866 275 2222 275 
Q 2575 275 2722 495 
Q 2869 716 2869 1294 
z
" transform="scale(0.015625)"/>
     </defs>
     <use xlink:href="#DejaVuSerif-Bold-38"/>
     <use xlink:href="#DejaVuSerif-Bold-2e" transform="translate(69.580078 0)"/>
     <use xlink:href="#DejaVuSerif-Bold-32" transform="translate(104.394531 0)"/>
     <use xlink:href="#DejaVuSerif-Bold-38" transform="translate(173.974609 0)"/>
    </g>
   </g>
   <g id="text_20">
    <!-- 6.92 -->
    <g transform="translate(213.32373 216.774741) scale(0.07 -0.07)">
     <defs>
      <path id="DejaVuSerif-Bold-39" d="M 2181 4384 
Q 1859 4384 1723 4111 
Q 1588 3838 1588 3163 
Q 1588 2488 1723 2214 
Q 1859 1941 2181 1941 
Q 2503 1941 2640 2214 
Q 2778 2488 2778 3163 
Q 2778 3838 2640 4111 
Q 2503 4384 2181 4384 
z
M 2878 1900 
Q 2672 1734 2420 1651 
Q 2169 1569 1875 1569 
Q 1163 1569 755 1986 
Q 347 2403 347 3138 
Q 347 3913 803 4331 
Q 1259 4750 2106 4750 
Q 3063 4750 3556 4172 
Q 4050 3594 4050 2478 
Q 4050 1206 3503 557 
Q 2956 -91 1881 -91 
Q 1600 -91 1278 -44 
Q 956 3 588 97 
L 588 922 
L 966 922 
Q 1044 603 1261 439 
Q 1478 275 1825 275 
Q 2375 275 2625 658 
Q 2875 1041 2878 1900 
z
" transform="scale(0.015625)"/>
     </defs>
     <use xlink:href="#DejaVuSerif-Bold-36"/>
     <use xlink:href="#DejaVuSerif-Bold-2e" transform="translate(69.580078 0)"/>
     <use xlink:href="#DejaVuSerif-Bold-39" transform="translate(104.394531 0)"/>
     <use xlink:href="#DejaVuSerif-Bold-32" transform="translate(173.974609 0)"/>
    </g>
   </g>
   <g id="text_21">
    <!-- 7.57 -->
    <g transform="translate(317.154293 185.60415) scale(0.07 -0.07)">
     <defs>
      <path id="DejaVuSerif-Bold-37" d="M 3922 3872 
L 1997 0 
L 1363 0 
L 3238 3781 
L 934 3781 
L 934 3150 
L 506 3150 
L 506 4666 
L 3922 4666 
L 3922 3872 
z
" transform="scale(0.015625)"/>
     </defs>
     <use xlink:href="#DejaVuSerif-Bold-37"/>
     <use xlink:href="#DejaVuSerif-Bold-2e" transform="translate(69.580078 0)"/>
     <use xlink:href="#DejaVuSerif-Bold-35" transform="translate(104.394531 0)"/>
     <use xlink:href="#DejaVuSerif-Bold-37" transform="translate(173.974609 0)"/>
    </g>
   </g>
   <g id="text_22">
    <!-- 7.42 -->
    <g transform="translate(420.984856 192.797363) scale(0.07 -0.07)">
     <use xlink:href="#DejaVuSerif-Bold-37"/>
     <use xlink:href="#DejaVuSerif-Bold-2e" transform="translate(69.580078 0)"/>
     <use xlink:href="#DejaVuSerif-Bold-34" transform="translate(104.394531 0)"/>
     <use xlink:href="#DejaVuSerif-Bold-32" transform="translate(173.974609 0)"/>
    </g>
   </g>
   <g id="text_23">
    <!-- 4.49 -->
    <g transform="translate(524.815419 333.3048) scale(0.07 -0.07)">
     <use xlink:href="#DejaVuSerif-Bold-34"/>
     <use xlink:href="#DejaVuSerif-Bold-2e" transform="translate(69.580078 0)"/>
     <use xlink:href="#DejaVuSerif-Bold-34" transform="translate(104.394531 0)"/>
     <use xlink:href="#DejaVuSerif-Bold-39" transform="translate(173.974609 0)"/>
    </g>
   </g>
   <g id="text_24">
    <!-- 7.47 -->
    <g transform="translate(628.645982 190.399625) scale(0.07 -0.07)">
     <use xlink:href="#DejaVuSerif-Bold-37"/>
     <use xlink:href="#DejaVuSerif-Bold-2e" transform="translate(69.580078 0)"/>
     <use xlink:href="#DejaVuSerif-Bold-34" transform="translate(104.394531 0)"/>
     <use xlink:href="#DejaVuSerif-Bold-37" transform="translate(173.974609 0)"/>
    </g>
   </g>
   <g id="text_25">
    <!-- 7.88 -->
    <g transform="translate(732.476545 170.738175) scale(0.07 -0.07)">
     <use xlink:href="#DejaVuSerif-Bold-37"/>
     <use xlink:href="#DejaVuSerif-Bold-2e" transform="translate(69.580078 0)"/>
     <use xlink:href="#DejaVuSerif-Bold-38" transform="translate(104.394531 0)"/>
     <use xlink:href="#DejaVuSerif-Bold-38" transform="translate(173.974609 0)"/>
    </g>
   </g>
   <g id="text_26">
    <!-- 6.63 -->
    <g transform="translate(836.307109 230.681621) scale(0.07 -0.07)">
     <use xlink:href="#DejaVuSerif-Bold-36"/>
     <use xlink:href="#DejaVuSerif-Bold-2e" transform="translate(69.580078 0)"/>
     <use xlink:href="#DejaVuSerif-Bold-36" transform="translate(104.394531 0)"/>
     <use xlink:href="#DejaVuSerif-Bold-33" transform="translate(173.974609 0)"/>
    </g>
   </g>
   <g id="text_27">
    <!-- 5.88 -->
    <g transform="translate(940.137672 266.647688) scale(0.07 -0.07)">
     <use xlink:href="#DejaVuSerif-Bold-35"/>
     <use xlink:href="#DejaVuSerif-Bold-2e" transform="translate(69.580078 0)"/>
     <use xlink:href="#DejaVuSerif-Bold-38" transform="translate(104.394531 0)"/>
     <use xlink:href="#DejaVuSerif-Bold-38" transform="translate(173.974609 0)"/>
    </g>
   </g>
   <g id="text_28">
    <!-- 7.21 -->
    <g transform="translate(1043.968235 202.867862) scale(0.07 -0.07)">
     <use xlink:href="#DejaVuSerif-Bold-37"/>
     <use xlink:href="#DejaVuSerif-Bold-2e" transform="translate(69.580078 0)"/>
     <use xlink:href="#DejaVuSerif-Bold-32" transform="translate(104.394531 0)"/>
     <use xlink:href="#DejaVuSerif-Bold-31" transform="translate(173.974609 0)"/>
    </g>
   </g>
   <g id="text_29">
    <!-- 7.06 -->
    <g transform="translate(1147.798798 210.061075) scale(0.07 -0.07)">
     <use xlink:href="#DejaVuSerif-Bold-37"/>
     <use xlink:href="#DejaVuSerif-Bold-2e" transform="translate(69.580078 0)"/>
     <use xlink:href="#DejaVuSerif-Bold-30" transform="translate(104.394531 0)"/>
     <use xlink:href="#DejaVuSerif-Bold-36" transform="translate(173.974609 0)"/>
    </g>
   </g>
   <g id="text_30">
    <!-- 8.67 -->
    <g transform="translate(128.182668 132.853917) scale(0.07 -0.07)">
     <use xlink:href="#DejaVuSerif-Bold-38"/>
     <use xlink:href="#DejaVuSerif-Bold-2e" transform="translate(69.580078 0)"/>
     <use xlink:href="#DejaVuSerif-Bold-36" transform="translate(104.394531 0)"/>
     <use xlink:href="#DejaVuSerif-Bold-37" transform="translate(173.974609 0)"/>
    </g>
   </g>
   <g id="text_31">
    <!-- 7.53 -->
    <g transform="translate(232.013231 187.52234) scale(0.07 -0.07)">
     <use xlink:href="#DejaVuSerif-Bold-37"/>
     <use xlink:href="#DejaVuSerif-Bold-2e" transform="translate(69.580078 0)"/>
     <use xlink:href="#DejaVuSerif-Bold-35" transform="translate(104.394531 0)"/>
     <use xlink:href="#DejaVuSerif-Bold-33" transform="translate(173.974609 0)"/>
    </g>
   </g>
   <g id="text_32">
    <!-- 8.15 -->
    <g transform="translate(335.843794 157.790391) scale(0.07 -0.07)">
     <use xlink:href="#DejaVuSerif-Bold-38"/>
     <use xlink:href="#DejaVuSerif-Bold-2e" transform="translate(69.580078 0)"/>
     <use xlink:href="#DejaVuSerif-Bold-31" transform="translate(104.394531 0)"/>
     <use xlink:href="#DejaVuSerif-Bold-35" transform="translate(173.974609 0)"/>
    </g>
   </g>
   <g id="text_33">
    <!-- 7.87 -->
    <g transform="translate(439.674358 171.217723) scale(0.07 -0.07)">
     <use xlink:href="#DejaVuSerif-Bold-37"/>
     <use xlink:href="#DejaVuSerif-Bold-2e" transform="translate(69.580078 0)"/>
     <use xlink:href="#DejaVuSerif-Bold-38" transform="translate(104.394531 0)"/>
     <use xlink:href="#DejaVuSerif-Bold-37" transform="translate(173.974609 0)"/>
    </g>
   </g>
   <g id="text_34">
    <!-- 4.31 -->
    <g transform="translate(543.504921 341.936656) scale(0.07 -0.07)">
     <use xlink:href="#DejaVuSerif-Bold-34"/>
     <use xlink:href="#DejaVuSerif-Bold-2e" transform="translate(69.580078 0)"/>
     <use xlink:href="#DejaVuSerif-Bold-33" transform="translate(104.394531 0)"/>
     <use xlink:href="#DejaVuSerif-Bold-31" transform="translate(173.974609 0)"/>
    </g>
   </g>
   <g id="text_35">
    <!-- 8.02 -->
    <g transform="translate(647.335484 164.024509) scale(0.07 -0.07)">
     <use xlink:href="#DejaVuSerif-Bold-38"/>
     <use xlink:href="#DejaVuSerif-Bold-2e" transform="translate(69.580078 0)"/>
     <use xlink:href="#DejaVuSerif-Bold-30" transform="translate(104.394531 0)"/>
     <use xlink:href="#DejaVuSerif-Bold-32" transform="translate(173.974609 0)"/>
    </g>
   </g>
   <g id="text_36">
    <!-- 8.23 -->
    <g transform="translate(751.166047 153.95401) scale(0.07 -0.07)">
     <use xlink:href="#DejaVuSerif-Bold-38"/>
     <use xlink:href="#DejaVuSerif-Bold-2e" transform="translate(69.580078 0)"/>
     <use xlink:href="#DejaVuSerif-Bold-32" transform="translate(104.394531 0)"/>
     <use xlink:href="#DejaVuSerif-Bold-33" transform="translate(173.974609 0)"/>
    </g>
   </g>
   <g id="text_37">
    <!-- 7.09 -->
    <g transform="translate(854.99661 208.622433) scale(0.07 -0.07)">
     <use xlink:href="#DejaVuSerif-Bold-37"/>
     <use xlink:href="#DejaVuSerif-Bold-2e" transform="translate(69.580078 0)"/>
     <use xlink:href="#DejaVuSerif-Bold-30" transform="translate(104.394531 0)"/>
     <use xlink:href="#DejaVuSerif-Bold-39" transform="translate(173.974609 0)"/>
    </g>
   </g>
   <g id="text_38">
    <!-- 4.69 -->
    <g transform="translate(958.827173 323.713848) scale(0.07 -0.07)">
     <use xlink:href="#DejaVuSerif-Bold-34"/>
     <use xlink:href="#DejaVuSerif-Bold-2e" transform="translate(69.580078 0)"/>
     <use xlink:href="#DejaVuSerif-Bold-36" transform="translate(104.394531 0)"/>
     <use xlink:href="#DejaVuSerif-Bold-39" transform="translate(173.974609 0)"/>
    </g>
   </g>
   <g id="text_39">
    <!-- 7.27 -->
    <g transform="translate(1062.657736 199.990577) scale(0.07 -0.07)">
     <use xlink:href="#DejaVuSerif-Bold-37"/>
     <use xlink:href="#DejaVuSerif-Bold-2e" transform="translate(69.580078 0)"/>
     <use xlink:href="#DejaVuSerif-Bold-32" transform="translate(104.394531 0)"/>
     <use xlink:href="#DejaVuSerif-Bold-37" transform="translate(173.974609 0)"/>
    </g>
   </g>
   <g id="text_40">
    <!-- 7.22 -->
    <g transform="translate(1166.488299 202.388314) scale(0.07 -0.07)">
     <use xlink:href="#DejaVuSerif-Bold-37"/>
     <use xlink:href="#DejaVuSerif-Bold-2e" transform="translate(69.580078 0)"/>
     <use xlink:href="#DejaVuSerif-Bold-32" transform="translate(104.394531 0)"/>
     <use xlink:href="#DejaVuSerif-Bold-32" transform="translate(173.974609 0)"/>
    </g>
   </g>
   <g id="text_41">
    <!-- 6.98 -->
    <g transform="translate(146.87217 213.897456) scale(0.07 -0.07)">
     <use xlink:href="#DejaVuSerif-Bold-36"/>
     <use xlink:href="#DejaVuSerif-Bold-2e" transform="translate(69.580078 0)"/>
     <use xlink:href="#DejaVuSerif-Bold-39" transform="translate(104.394531 0)"/>
     <use xlink:href="#DejaVuSerif-Bold-38" transform="translate(173.974609 0)"/>
    </g>
   </g>
   <g id="text_42">
    <!-- 5.63 -->
    <g transform="translate(250.702733 278.636377) scale(0.07 -0.07)">
     <use xlink:href="#DejaVuSerif-Bold-35"/>
     <use xlink:href="#DejaVuSerif-Bold-2e" transform="translate(69.580078 0)"/>
     <use xlink:href="#DejaVuSerif-Bold-36" transform="translate(104.394531 0)"/>
     <use xlink:href="#DejaVuSerif-Bold-33" transform="translate(173.974609 0)"/>
    </g>
   </g>
   <g id="text_43">
    <!-- 6.02 -->
    <g transform="translate(354.533296 259.934022) scale(0.07 -0.07)">
     <use xlink:href="#DejaVuSerif-Bold-36"/>
     <use xlink:href="#DejaVuSerif-Bold-2e" transform="translate(69.580078 0)"/>
     <use xlink:href="#DejaVuSerif-Bold-30" transform="translate(104.394531 0)"/>
     <use xlink:href="#DejaVuSerif-Bold-32" transform="translate(173.974609 0)"/>
    </g>
   </g>
   <g id="text_44">
    <!-- 6.16 -->
    <g transform="translate(458.363859 253.220356) scale(0.07 -0.07)">
     <use xlink:href="#DejaVuSerif-Bold-36"/>
     <use xlink:href="#DejaVuSerif-Bold-2e" transform="translate(69.580078 0)"/>
     <use xlink:href="#DejaVuSerif-Bold-31" transform="translate(104.394531 0)"/>
     <use xlink:href="#DejaVuSerif-Bold-36" transform="translate(173.974609 0)"/>
    </g>
   </g>
   <g id="text_45">
    <!-- 2.86 -->
    <g transform="translate(562.194422 411.471053) scale(0.07 -0.07)">
     <use xlink:href="#DejaVuSerif-Bold-32"/>
     <use xlink:href="#DejaVuSerif-Bold-2e" transform="translate(69.580078 0)"/>
     <use xlink:href="#DejaVuSerif-Bold-38" transform="translate(104.394531 0)"/>
     <use xlink:href="#DejaVuSerif-Bold-36" transform="translate(173.974609 0)"/>
    </g>
   </g>
   <g id="text_46">
    <!-- 6.23 -->
    <g transform="translate(666.024985 249.863523) scale(0.07 -0.07)">
     <use xlink:href="#DejaVuSerif-Bold-36"/>
     <use xlink:href="#DejaVuSerif-Bold-2e" transform="translate(69.580078 0)"/>
     <use xlink:href="#DejaVuSerif-Bold-32" transform="translate(104.394531 0)"/>
     <use xlink:href="#DejaVuSerif-Bold-33" transform="translate(173.974609 0)"/>
    </g>
   </g>
   <g id="text_47">
    <!-- 6.59 -->
    <g transform="translate(769.855548 232.599811) scale(0.07 -0.07)">
     <use xlink:href="#DejaVuSerif-Bold-36"/>
     <use xlink:href="#DejaVuSerif-Bold-2e" transform="translate(69.580078 0)"/>
     <use xlink:href="#DejaVuSerif-Bold-35" transform="translate(104.394531 0)"/>
     <use xlink:href="#DejaVuSerif-Bold-39" transform="translate(173.974609 0)"/>
    </g>
   </g>
   <g id="text_48">
    <!-- 5.24 -->
    <g transform="translate(873.686111 297.338732) scale(0.07 -0.07)">
     <use xlink:href="#DejaVuSerif-Bold-35"/>
     <use xlink:href="#DejaVuSerif-Bold-2e" transform="translate(69.580078 0)"/>
     <use xlink:href="#DejaVuSerif-Bold-32" transform="translate(104.394531 0)"/>
     <use xlink:href="#DejaVuSerif-Bold-34" transform="translate(173.974609 0)"/>
    </g>
   </g>
   <g id="text_49">
    <!-- 3.84 -->
    <g transform="translate(977.516674 364.475391) scale(0.07 -0.07)">
     <use xlink:href="#DejaVuSerif-Bold-33"/>
     <use xlink:href="#DejaVuSerif-Bold-2e" transform="translate(69.580078 0)"/>
     <use xlink:href="#DejaVuSerif-Bold-38" transform="translate(104.394531 0)"/>
     <use xlink:href="#DejaVuSerif-Bold-34" transform="translate(173.974609 0)"/>
    </g>
   </g>
   <g id="text_50">
    <!-- 5.69 -->
    <g transform="translate(1081.347237 275.759092) scale(0.07 -0.07)">
     <use xlink:href="#DejaVuSerif-Bold-35"/>
     <use xlink:href="#DejaVuSerif-Bold-2e" transform="translate(69.580078 0)"/>
     <use xlink:href="#DejaVuSerif-Bold-36" transform="translate(104.394531 0)"/>
     <use xlink:href="#DejaVuSerif-Bold-39" transform="translate(173.974609 0)"/>
    </g>
   </g>
   <g id="text_51">
    <!-- 5.52 -->
    <g transform="translate(1185.177801 283.9114) scale(0.07 -0.07)">
     <use xlink:href="#DejaVuSerif-Bold-35"/>
     <use xlink:href="#DejaVuSerif-Bold-2e" transform="translate(69.580078 0)"/>
     <use xlink:href="#DejaVuSerif-Bold-35" transform="translate(104.394531 0)"/>
     <use xlink:href="#DejaVuSerif-Bold-32" transform="translate(173.974609 0)"/>
    </g>
   </g>
   <g id="text_52">
    <!-- 7.88 -->
    <g transform="translate(165.561671 170.882039) scale(0.07 -0.07)">
     <use xlink:href="#DejaVuSerif-Bold-37"/>
     <use xlink:href="#DejaVuSerif-Bold-2e" transform="translate(69.580078 0)"/>
     <use xlink:href="#DejaVuSerif-Bold-38" transform="translate(104.394531 0)"/>
     <use xlink:href="#DejaVuSerif-Bold-38" transform="translate(173.974609 0)"/>
    </g>
   </g>
   <g id="text_53">
    <!-- 6.59 -->
    <g transform="translate(269.392234 232.743675) scale(0.07 -0.07)">
     <use xlink:href="#DejaVuSerif-Bold-36"/>
     <use xlink:href="#DejaVuSerif-Bold-2e" transform="translate(69.580078 0)"/>
     <use xlink:href="#DejaVuSerif-Bold-35" transform="translate(104.394531 0)"/>
     <use xlink:href="#DejaVuSerif-Bold-39" transform="translate(173.974609 0)"/>
    </g>
   </g>
   <g id="text_54">
    <!-- 7.12 -->
    <g transform="translate(373.222797 206.991971) scale(0.07 -0.07)">
     <use xlink:href="#DejaVuSerif-Bold-37"/>
     <use xlink:href="#DejaVuSerif-Bold-2e" transform="translate(69.580078 0)"/>
     <use xlink:href="#DejaVuSerif-Bold-31" transform="translate(104.394531 0)"/>
     <use xlink:href="#DejaVuSerif-Bold-32" transform="translate(173.974609 0)"/>
    </g>
   </g>
   <g id="text_55">
    <!-- 7.05 -->
    <g transform="translate(477.05336 210.492668) scale(0.07 -0.07)">
     <use xlink:href="#DejaVuSerif-Bold-37"/>
     <use xlink:href="#DejaVuSerif-Bold-2e" transform="translate(69.580078 0)"/>
     <use xlink:href="#DejaVuSerif-Bold-30" transform="translate(104.394531 0)"/>
     <use xlink:href="#DejaVuSerif-Bold-35" transform="translate(173.974609 0)"/>
    </g>
   </g>
   <g id="text_56">
    <!-- 3.78 -->
    <g transform="translate(580.883923 367.160858) scale(0.07 -0.07)">
     <use xlink:href="#DejaVuSerif-Bold-33"/>
     <use xlink:href="#DejaVuSerif-Bold-2e" transform="translate(69.580078 0)"/>
     <use xlink:href="#DejaVuSerif-Bold-37" transform="translate(104.394531 0)"/>
     <use xlink:href="#DejaVuSerif-Bold-38" transform="translate(173.974609 0)"/>
    </g>
   </g>
   <g id="text_57">
    <!-- 7.14 -->
    <g transform="translate(684.714486 206.27265) scale(0.07 -0.07)">
     <use xlink:href="#DejaVuSerif-Bold-37"/>
     <use xlink:href="#DejaVuSerif-Bold-2e" transform="translate(69.580078 0)"/>
     <use xlink:href="#DejaVuSerif-Bold-31" transform="translate(104.394531 0)"/>
     <use xlink:href="#DejaVuSerif-Bold-34" transform="translate(173.974609 0)"/>
    </g>
   </g>
   <g id="text_58">
    <!-- 7.47 -->
    <g transform="translate(788.54505 190.44758) scale(0.07 -0.07)">
     <use xlink:href="#DejaVuSerif-Bold-37"/>
     <use xlink:href="#DejaVuSerif-Bold-2e" transform="translate(69.580078 0)"/>
     <use xlink:href="#DejaVuSerif-Bold-34" transform="translate(104.394531 0)"/>
     <use xlink:href="#DejaVuSerif-Bold-37" transform="translate(173.974609 0)"/>
    </g>
   </g>
   <g id="text_59">
    <!-- 6.21 -->
    <g transform="translate(892.375613 250.726709) scale(0.07 -0.07)">
     <use xlink:href="#DejaVuSerif-Bold-36"/>
     <use xlink:href="#DejaVuSerif-Bold-2e" transform="translate(69.580078 0)"/>
     <use xlink:href="#DejaVuSerif-Bold-32" transform="translate(104.394531 0)"/>
     <use xlink:href="#DejaVuSerif-Bold-31" transform="translate(173.974609 0)"/>
    </g>
   </g>
   <g id="text_60">
    <!-- 4.71 -->
    <g transform="translate(996.206176 322.898617) scale(0.07 -0.07)">
     <use xlink:href="#DejaVuSerif-Bold-34"/>
     <use xlink:href="#DejaVuSerif-Bold-2e" transform="translate(69.580078 0)"/>
     <use xlink:href="#DejaVuSerif-Bold-37" transform="translate(104.394531 0)"/>
     <use xlink:href="#DejaVuSerif-Bold-31" transform="translate(173.974609 0)"/>
    </g>
   </g>
   <g id="text_61">
    <!-- 6.62 -->
    <g transform="translate(1100.036739 231.161168) scale(0.07 -0.07)">
     <use xlink:href="#DejaVuSerif-Bold-36"/>
     <use xlink:href="#DejaVuSerif-Bold-2e" transform="translate(69.580078 0)"/>
     <use xlink:href="#DejaVuSerif-Bold-36" transform="translate(104.394531 0)"/>
     <use xlink:href="#DejaVuSerif-Bold-32" transform="translate(173.974609 0)"/>
    </g>
   </g>
   <g id="text_62">
    <!-- 6.49 -->
    <g transform="translate(1203.867302 237.299377) scale(0.07 -0.07)">
     <use xlink:href="#DejaVuSerif-Bold-36"/>
     <use xlink:href="#DejaVuSerif-Bold-2e" transform="translate(69.580078 0)"/>
     <use xlink:href="#DejaVuSerif-Bold-34" transform="translate(104.394531 0)"/>
     <use xlink:href="#DejaVuSerif-Bold-39" transform="translate(173.974609 0)"/>
    </g>
   </g>
   <g id="legend_1">
    <g id="patch_49">
     <path d="M 380.880312 21.118125 
L 404.880312 21.118125 
L 404.880312 12.718125 
L 380.880312 12.718125 
z
" style="fill: #e6e6e6; stroke: #ffffff; stroke-width: 0.5; stroke-linejoin: miter"/>
    </g>
    <g id="text_63">
     <!-- Reasoning (0.3) -->
     <g transform="translate(414.480312 21.118125) scale(0.12 -0.12)">
      <defs>
       <path id="DejaVuSerif-Bold-52" d="M 3397 2278 
Q 3675 2238 3865 2094 
Q 4056 1950 4197 1678 
L 4878 378 
L 5356 378 
L 5356 0 
L 3822 0 
L 3078 1409 
Q 2863 1847 2711 1967 
Q 2559 2088 2291 2088 
L 2100 2088 
L 2100 378 
L 2700 378 
L 2700 0 
L 300 0 
L 300 378 
L 897 378 
L 897 4288 
L 300 4288 
L 300 4666 
L 2963 4666 
Q 3775 4666 4217 4339 
Q 4659 4013 4659 3413 
Q 4659 2925 4345 2642 
Q 4031 2359 3397 2278 
z
M 2100 2463 
L 2509 2463 
Q 2947 2463 3183 2700 
Q 3419 2938 3419 3378 
Q 3419 3819 3183 4053 
Q 2947 4288 2509 4288 
L 2100 4288 
L 2100 2463 
z
" transform="scale(0.015625)"/>
       <path id="DejaVuSerif-Bold-28" d="M 2694 -997 
Q 1641 -606 1122 122 
Q 603 850 603 1931 
Q 603 3013 1115 3731 
Q 1628 4450 2694 4863 
L 2694 4488 
Q 2200 4188 1983 3598 
Q 1766 3009 1766 1931 
Q 1766 856 1983 267 
Q 2200 -322 2694 -622 
L 2694 -997 
z
" transform="scale(0.015625)"/>
       <path id="DejaVuSerif-Bold-d7" d="M 4538 3378 
L 3163 2003 
L 4538 628 
L 4056 147 
L 2681 1522 
L 1306 147 
L 825 628 
L 2203 2003 
L 825 3378 
L 1306 3866 
L 2681 2491 
L 4056 3866 
L 4538 3378 
z
" transform="scale(0.015625)"/>
       <path id="DejaVuSerif-Bold-29" d="M 325 -997 
L 325 -622 
Q 819 -322 1036 267 
Q 1253 856 1253 1931 
Q 1253 3009 1036 3598 
Q 819 4188 325 4488 
L 325 4863 
Q 1391 4450 1905 3731 
Q 2419 3013 2419 1931 
Q 2419 850 1898 122 
Q 1378 -606 325 -997 
z
" transform="scale(0.015625)"/>
      </defs>
      <use xlink:href="#DejaVuSerif-Bold-52"/>
      <use xlink:href="#DejaVuSerif-Bold-65" transform="translate(83.105469 0)"/>
      <use xlink:href="#DejaVuSerif-Bold-61" transform="translate(146.728516 0)"/>
      <use xlink:href="#DejaVuSerif-Bold-73" transform="translate(211.523438 0)"/>
      <use xlink:href="#DejaVuSerif-Bold-6f" transform="translate(267.822266 0)"/>
      <use xlink:href="#DejaVuSerif-Bold-6e" transform="translate(334.521484 0)"/>
      <use xlink:href="#DejaVuSerif-Bold-69" transform="translate(407.226562 0)"/>
      <use xlink:href="#DejaVuSerif-Bold-6e" transform="translate(445.214844 0)"/>
      <use xlink:href="#DejaVuSerif-Bold-67" transform="translate(517.919922 0)"/>
      <use xlink:href="#DejaVuSerif-Bold-20" transform="translate(587.841797 0)"/>
      <use xlink:href="#DejaVuSerif-Bold-28" transform="translate(622.65625 0)"/>
      <use xlink:href="#DejaVuSerif-Bold-d7" transform="translate(669.970703 0)"/>
      <use xlink:href="#DejaVuSerif-Bold-30" transform="translate(753.759766 0)"/>
      <use xlink:href="#DejaVuSerif-Bold-2e" transform="translate(823.339844 0)"/>
      <use xlink:href="#DejaVuSerif-Bold-33" transform="translate(858.154297 0)"/>
      <use xlink:href="#DejaVuSerif-Bold-29" transform="translate(927.734375 0)"/>
     </g>
    </g>
    <g id="patch_50">
     <path d="M 555.485937 21.118125 
L 579.485937 21.118125 
L 579.485937 12.718125 
L 555.485937 12.718125 
z
" style="fill: #a6c9ff; stroke: #ffffff; stroke-width: 0.5; stroke-linejoin: miter"/>
    </g>
    <g id="text_64">
     <!-- Code (0.3) -->
     <g transform="translate(589.085938 21.118125) scale(0.12 -0.12)">
      <defs>
       <path id="DejaVuSerif-Bold-43" d="M 4769 1331 
Q 4584 609 4106 259 
Q 3628 -91 2822 -91 
Q 1641 -91 955 561 
Q 269 1213 269 2328 
Q 269 3447 955 4098 
Q 1641 4750 2822 4750 
Q 3238 4750 3688 4650 
Q 4138 4550 4641 4347 
L 4641 3200 
L 4244 3200 
Q 4122 3788 3800 4080 
Q 3478 4372 2950 4372 
Q 2269 4372 1937 3870 
Q 1606 3369 1606 2328 
Q 1606 1288 1937 788 
Q 2269 288 2956 288 
Q 3422 288 3717 547 
Q 4013 806 4147 1331 
L 4769 1331 
z
" transform="scale(0.015625)"/>
      </defs>
      <use xlink:href="#DejaVuSerif-Bold-43"/>
      <use xlink:href="#DejaVuSerif-Bold-6f" transform="translate(79.589844 0)"/>
      <use xlink:href="#DejaVuSerif-Bold-64" transform="translate(146.289062 0)"/>
      <use xlink:href="#DejaVuSerif-Bold-65" transform="translate(216.210938 0)"/>
      <use xlink:href="#DejaVuSerif-Bold-20" transform="translate(279.833984 0)"/>
      <use xlink:href="#DejaVuSerif-Bold-28" transform="translate(314.648438 0)"/>
      <use xlink:href="#DejaVuSerif-Bold-d7" transform="translate(361.962891 0)"/>
      <use xlink:href="#DejaVuSerif-Bold-30" transform="translate(445.751953 0)"/>
      <use xlink:href="#DejaVuSerif-Bold-2e" transform="translate(515.332031 0)"/>
      <use xlink:href="#DejaVuSerif-Bold-33" transform="translate(550.146484 0)"/>
      <use xlink:href="#DejaVuSerif-Bold-29" transform="translate(619.726562 0)"/>
     </g>
    </g>
    <g id="patch_51">
     <path d="M 693.131562 21.118125 
L 717.131562 21.118125 
L 717.131562 12.718125 
L 693.131562 12.718125 
z
" style="fill: #b3b3b3; stroke: #ffffff; stroke-width: 0.5; stroke-linejoin: miter"/>
    </g>
    <g id="text_65">
     <!-- Result (0.4) -->
     <g transform="translate(726.731562 21.118125) scale(0.12 -0.12)">
      <use xlink:href="#DejaVuSerif-Bold-52"/>
      <use xlink:href="#DejaVuSerif-Bold-65" transform="translate(83.105469 0)"/>
      <use xlink:href="#DejaVuSerif-Bold-73" transform="translate(146.728516 0)"/>
      <use xlink:href="#DejaVuSerif-Bold-75" transform="translate(203.027344 0)"/>
      <use xlink:href="#DejaVuSerif-Bold-6c" transform="translate(275.732422 0)"/>
      <use xlink:href="#DejaVuSerif-Bold-74" transform="translate(313.720703 0)"/>
      <use xlink:href="#DejaVuSerif-Bold-20" transform="translate(359.912109 0)"/>
      <use xlink:href="#DejaVuSerif-Bold-28" transform="translate(394.726562 0)"/>
      <use xlink:href="#DejaVuSerif-Bold-d7" transform="translate(442.041016 0)"/>
      <use xlink:href="#DejaVuSerif-Bold-30" transform="translate(525.830078 0)"/>
      <use xlink:href="#DejaVuSerif-Bold-2e" transform="translate(595.410156 0)"/>
      <use xlink:href="#DejaVuSerif-Bold-34" transform="translate(630.224609 0)"/>
      <use xlink:href="#DejaVuSerif-Bold-29" transform="translate(699.804688 0)"/>
     </g>
    </g>
    <g id="patch_52">
     <path d="M 840.384687 21.118125 
L 864.384687 21.118125 
L 864.384687 12.718125 
L 840.384687 12.718125 
z
" style="fill: url(#h70a7661fb7); stroke: #ffffff; stroke-width: 0.5; stroke-linejoin: miter"/>
    </g>
    <g id="text_66">
     <!-- Total Score -->
     <g transform="translate(873.984687 21.118125) scale(0.12 -0.12)">
      <defs>
       <path id="DejaVuSerif-Bold-54" d="M 1159 0 
L 1159 378 
L 1778 378 
L 1778 4238 
L 500 4238 
L 500 3500 
L 72 3500 
L 72 4666 
L 4697 4666 
L 4697 3500 
L 4275 3500 
L 4275 4238 
L 2988 4238 
L 2988 378 
L 3609 378 
L 3609 0 
L 1159 0 
z
" transform="scale(0.015625)"/>
      </defs>
      <use xlink:href="#DejaVuSerif-Bold-54"/>
      <use xlink:href="#DejaVuSerif-Bold-6f" transform="translate(62.914062 0)"/>
      <use xlink:href="#DejaVuSerif-Bold-74" transform="translate(129.613281 0)"/>
      <use xlink:href="#DejaVuSerif-Bold-61" transform="translate(175.804688 0)"/>
      <use xlink:href="#DejaVuSerif-Bold-6c" transform="translate(240.599609 0)"/>
      <use xlink:href="#DejaVuSerif-Bold-20" transform="translate(278.587891 0)"/>
      <use xlink:href="#DejaVuSerif-Bold-53" transform="translate(313.402344 0)"/>
      <use xlink:href="#DejaVuSerif-Bold-63" transform="translate(385.619141 0)"/>
      <use xlink:href="#DejaVuSerif-Bold-6f" transform="translate(446.507812 0)"/>
      <use xlink:href="#DejaVuSerif-Bold-72" transform="translate(513.207031 0)"/>
      <use xlink:href="#DejaVuSerif-Bold-65" transform="translate(565.892578 0)"/>
     </g>
    </g>
   </g>
  </g>
 </g>
 <defs>
  <clipPath id="pacce6d4c95">
   <rect x="53.019375" y="51.552494" width="1224.37" height="503.524943"/>
  </clipPath>
 </defs>
 <defs>
  <pattern id="h70a7661fb7" patternUnits="userSpaceOnUse" x="0" y="0" width="72" height="72">
   <rect x="0" y="0" width="73" height="73" fill="#4b75ff"/>
   <path d="M -36 36 
L 36 -36 
M -32 40 
L 40 -32 
M -28 44 
L 44 -28 
M -24 48 
L 48 -24 
M -20 52 
L 52 -20 
M -16 56 
L 56 -16 
M -12 60 
L 60 -12 
M -8 64 
L 64 -8 
M -4 68 
L 68 -4 
M 0 72 
L 72 0 
M 4 76 
L 76 4 
M 8 80 
L 80 8 
M 12 84 
L 84 12 
M 16 88 
L 88 16 
M 20 92 
L 92 20 
M 24 96 
L 96 24 
M 28 100 
L 100 28 
M 32 104 
L 104 32 
M 36 108 
L 108 36 
" style="fill: #ffffff; stroke: #ffffff; stroke-width: 1.0; stroke-linecap: butt; stroke-linejoin: miter"/>
  </pattern>
 </defs>
</svg>
